<svg xmlns="http://www.w3.org/2000/svg" viewBox="0 0 18.7 18.7"><defs><style>.cls-1{fill:#8eff68;}.cls-2{fill:#fff;opacity:0.5;}.cls-3{fill:#231f20;opacity:0.25;}</style></defs><title>Asset 13</title><g id="Layer_2" data-name="Layer 2"><g id="OBJECTS"><path class="cls-1" d="M18.7,9.35a9.35,9.35,0,0,1-18.49,2,9.05,9.05,0,0,1-.21-2A9.35,9.35,0,0,1,18.33,6.76,9.21,9.21,0,0,1,18.7,9.35Z"/><path class="cls-2" d="M2.75,6.82a1.63,1.63,0,0,0,.88,1.64,1.87,1.87,0,0,0,1.28-.22A25,25,0,0,0,7.38,7,3.28,3.28,0,0,0,8.57,6a2.5,2.5,0,0,0,.34-1.06,2.19,2.19,0,0,0-3.2-2.38A5,5,0,0,0,2.75,6.82Z"/><path class="cls-3" d="M18.7,9.35a9.35,9.35,0,0,1-18.49,2A16.73,16.73,0,0,0,3,13a11.93,11.93,0,0,0,5.47.85,12.26,12.26,0,0,0,9.91-7.09A9.21,9.21,0,0,1,18.7,9.35Z"/></g></g></svg>