<?xml version="1.0" encoding="utf-8"?>
<!-- Generator: Adobe Illustrator 23.0.1, SVG Export Plug-In . SVG Version: 6.00 Build 0)  -->
<svg version="1.1" xmlns="http://www.w3.org/2000/svg" xmlns:xlink="http://www.w3.org/1999/xlink" x="0px" y="0px"
	 viewBox="0 0 750 500" style="enable-background:new 0 0 750 500;" xml:space="preserve">
<style type="text/css">
	.st0{fill:url(#SVGID_1_);}
	.st1{display:none;}
	.st2{display:inline;opacity:0.71;fill:#8994A9;}
	.st3{display:inline;fill:#61708C;}
	.st4{display:inline;fill:#FCD7A8;}
	.st5{display:inline;opacity:0.29;}
	.st6{fill:#FCD7A8;}
	.st7{fill:#061636;}
	.st8{display:inline;}
	.st9{fill:#FAC47D;}
	.st10{display:inline;fill:#FAC47D;}
	.st11{fill:#F6921E;}
	.st12{display:inline;fill:#061636;}
	.st13{fill:#FFFFFF;}
	.st14{opacity:0.39;}
	.st15{fill:#38455E;}
	.st16{display:inline;fill:#F8A334;}
	.st17{font-family:'Creepster-Regular';}
	.st18{font-size:67px;}
</style>
<g id="BACKGROUND">
	<linearGradient id="SVGID_1_" gradientUnits="userSpaceOnUse" x1="375" y1="500" x2="375" y2="-9.094947e-13">
		<stop  offset="0" style="stop-color:#4F6185"/>
		<stop  offset="1" style="stop-color:#1A2C4D"/>
	</linearGradient>
	<rect class="st0" width="750" height="500"/>
</g>
<g id="OBJECTS" class="st1">
	<g>
		<path class="st2" d="M750,283.85c-1.74,0.45-3.49,0.96-5.23,1.59c-1.95-6.82-5.29-13.17-10-18.26
			c-12.12-13.08-29.42-19.32-46.3-20.8c-17.14-1.5-36.99,0.63-51.29,11.67c-5.7,4.4-11.69,9.19-15.55,15.55
			c-12.01-15.52-37.28-25.58-55.15-16.78c-7.75,3.81-12.65,9.96-15.35,17.19c-11.32-12.17-31.3-14.47-45.19-5.93
			c-3.88,2.39-7.08,5.46-9.5,8.96c-5.31-9.08-17.88-14.5-27.62-12.31c-8.32,1.87-16.93,7.65-19.1,17.02
			c-0.04,0.14-0.05,0.28-0.08,0.42c-11.35-27.27-43.28-43.59-70.58-43.12c-27.19,0.46-56.08,17.11-58.66,45.22
			c-8.68-14.86-26.9-20.67-42.15-8.51c-2.29,1.83-4.53,3.94-6.5,6.3c-8.69-11.58-26.88-16.07-39.91-13.87
			c-3.65,0.62-7.42,1.65-11.02,3.16c-8.79-7.4-19.78-12.67-31-15.1c-11.52-7.77-25.16-12.27-36.84-12.15
			c-13.93,0.14-28.54,6.22-34.78,20.53c-2.48,5.68-4.35,12.39-4.3,18.9c-0.54,0.78-1.07,1.58-1.58,2.39c-0.01-0.14,0-0.29-0.02-0.43
			c-0.68-9.62-8.27-16.86-16.19-20.19c-9.27-3.89-22.5-0.79-29.15,7.21c-1.83-3.88-4.51-7.48-7.97-10.53
			c-12.37-10.89-32.43-12.19-45.48-2.22c-1.53-7.61-5.41-14.55-12.46-19.69c-0.34-0.25-0.7-0.48-1.05-0.72v171.8
			c12.8,1.24,26.26-2.38,34.59-13.47c4.95-6.6,6.84-15.04,7.21-23.32c0.27-6.29-1.1-11.92-3.39-17.16
			c8.05,1.02,17.23-1.95,23.21-8.3c-2.03,6.21-2.92,12.8-2.76,18.12c0.53,17.35,11.47,33.1,26.93,38.03
			c9.75,3.11,25.69,4.25,40.13,1.4c-0.28,8.33,4.35,16.46,10.81,20.87c7.5,5.11,17.75,4.14,25.75,1.13
			c8.86-3.33,16.38-10.79,19.78-20.16c0.39-1.09,0.68-2.15,0.93-3.22c7.62,7.35,18.49,11.57,27.83,14.16
			c13.45,3.73,29.4,4.51,42.34-1.62c3.92-1.86,7.82-5.28,11.03-9.51c2.09,2.93,5.25,5.16,8.32,6.61c6.64,3.14,14.52,3.28,21.2,0.29
			c2.37-1.06,4.35-2.54,6.02-4.33c0.28,6.53,2.18,12.99,5.57,18.26c6.95,10.8,19.79,16.01,31.56,17.01
			c11.99,1.01,25.02-2.75,33.91-11.68c2.68-2.69,4.81-5.63,6.51-8.75c8.92,0.74,18.77-2.09,25.72-8.12c0.13-0.06,0.26-0.1,0.39-0.16
			c5.47-2.47,10.18-7.34,12.51-13.24c5.18,1.59,10.32,0.89,14.98-1.36c9.76,2.12,19.33,2.63,26.21,1.73
			c16.01-2.1,29.24-15.68,32.46-32.69c0.99-5.21,1.12-11.87,0.09-18.36c4.91,7.33,13.5,11.9,21.6,12.33
			c-3.07,4.76-5.3,10.06-6.01,16.31c-0.93,8.23-0.38,16.89,3.48,24.28c6.96,13.34,21.08,19.24,34.82,19.62
			c4.01,0.11,8.28-0.13,12.54-0.82c-0.58,1.86-0.98,3.81-1,5.98c-0.06,5.54,3.2,11.83,6.3,16.08c6.89,9.47,18.16,14.56,29.35,13.11
			c8.45-1.09,19.37-5.09,23.02-14.31c1.25-3.15,1.55-6.31,1.1-9.27c5.59,3.86,11.3,7.47,17.92,8.81c8.41,1.69,17.45,1.61,25.66-1.22
			c14.22-4.89,26.83-15.72,33.8-30c5.48-11.24,8.73-26.23,2.6-37.99c1.96,0.24,3.75,0.64,6.03,0.27c3-0.49,5.89-1.41,8.66-2.74
			c2.03-0.98,4.06-2.07,6.01-3.3c1.73,1.79,3.62,3.41,5.72,4.81c7.88,5.22,19.15,8.12,28.57,5.92V283.85z"/>
		<path class="st3" d="M750,359.85c-1.94-0.96-3.93-1.77-5.87-2.41c-9.88-3.3-21.07-2.7-30.57,1.45c-1.36,0.6-2.61,1.27-3.78,2.03
			c-2.3-2.09-5.05-3.69-8.29-4.69c-10.22-3.15-23.17-0.29-32.01,5.18c-2.19,1.36-4.16,2.94-5.96,4.68c-2.03-1.2-4.15-2.26-6.26-3.21
			c-2.88-1.29-5.9-2.18-9.02-2.66c-2.37-0.36-4.24,0.02-6.29,0.26c6.39-11.43,3-25.99-2.71-36.92
			c-7.26-13.88-20.41-24.41-35.23-29.16c-8.56-2.75-17.98-2.83-26.75-1.18c-6.91,1.3-12.85,4.81-18.68,8.56
			c0.46-2.88,0.15-5.94-1.15-9.01c-3.8-8.97-15.19-12.85-23.99-13.91c-11.67-1.41-23.42,3.54-30.6,12.75
			c-3.22,4.13-6.62,10.25-6.56,15.63c0.02,2.11,0.44,4.01,1.04,5.81c-4.44-0.67-8.89-0.9-13.07-0.79
			c-14.32,0.37-29.04,6.1-36.3,19.07c-4.02,7.18-4.6,15.6-3.63,23.6c0.74,6.08,3.07,11.23,6.26,15.85
			c-8.44,0.42-17.39,4.86-22.51,11.98c1.08-6.31,0.93-12.78-0.09-17.84c-3.36-16.53-17.15-29.73-33.84-31.77
			c-7.17-0.88-17.14-0.38-27.32,1.68c-4.86-2.18-10.22-2.87-15.62-1.32c-2.43-5.74-7.34-10.47-13.04-12.87
			c-0.13-0.06-0.27-0.1-0.41-0.15c-7.24-5.87-17.51-8.61-26.81-7.89c-1.78-3.03-4-5.89-6.79-8.51
			c-9.27-8.68-22.85-12.33-35.35-11.35c-12.27,0.97-25.65,6.03-32.9,16.53c-3.53,5.12-5.51,11.4-5.8,17.74
			c-1.74-1.74-3.81-3.18-6.28-4.21c-6.97-2.9-15.18-2.76-22.1,0.29c-3.21,1.41-6.5,3.57-8.68,6.42c-3.35-4.11-7.41-7.43-11.5-9.24
			c-13.5-5.96-30.12-5.2-44.14-1.57c-9.73,2.52-21.07,6.61-29.01,13.76c-0.26-1.04-0.56-2.07-0.97-3.13
			c-3.54-9.11-11.38-16.36-20.61-19.59c-8.33-2.92-19.02-3.87-26.84,1.1C53.26,315.1,48.44,323,48.73,331.1
			c-15.05-2.77-31.67-1.66-41.83,1.36c-2.41,0.72-4.71,1.67-6.89,2.83v133.44c5.93,1.64,12.41,1.61,17.67-0.45
			c8.25-3.23,16.16-10.27,16.87-19.62c0.01-0.14,0.01-0.28,0.02-0.42c0.53,0.79,1.08,1.56,1.64,2.33
			c-0.05,6.32,1.9,12.85,4.48,18.37c6.51,13.91,21.74,19.82,36.25,19.96c12.18,0.11,26.4-4.26,38.4-11.81
			c11.69-2.36,23.15-7.48,32.31-14.68c3.75,1.47,7.69,2.47,11.49,3.07c13.59,2.14,32.55-2.23,41.61-13.48
			c2.06,2.29,4.39,4.35,6.78,6.13c15.9,11.83,34.9,6.17,43.94-8.27c2.69,27.32,32.8,43.5,61.14,43.95
			c28.45,0.46,61.74-15.41,73.57-41.91c0.03,0.14,0.05,0.28,0.09,0.41c2.26,9.11,11.23,14.72,19.91,16.54
			c10.16,2.12,23.26-3.14,28.79-11.97c2.51,3.4,5.85,6.39,9.9,8.71c14.48,8.3,35.3,6.06,47.11-5.76c2.81,7.03,7.92,13,16,16.71
			c18.63,8.55,44.97-1.23,57.49-16.31c4.03,6.18,10.28,10.83,16.21,15.11c14.91,10.74,35.6,12.81,53.47,11.35
			c17.59-1.44,35.62-7.5,48.26-20.22c4.91-4.95,8.39-11.12,10.43-17.75c4.53,1.53,9.2,2.5,13.32,2.96
			c14.82,1.67,29.91-1.59,42.87-8.82V359.85z"/>
	</g>
	<g>
		<ellipse class="st4" cx="375" cy="146.49" rx="117.62" ry="117.18"/>
		<g class="st5">
			<g>
				<path class="st6" d="M434.9,210.03c-0.44-0.09-0.92-0.07-1.4,0.06c-0.49,0.11-0.98,0.35-1.46,0.68
					c-2.04,0.22-4.21,0.93-6.15,1.9c-1.94,0.97-3.64,2.21-4.85,3.51c-1.66,5.25-0.02,6.46,3.38,5.96c1.7-0.26,3.83-0.97,6.11-1.88
					c2.27-0.91,4.67-2.01,6.78-3c1.03-1.79,2.09-3.1,2.78-3.93c-1.03-0.43-2.06-0.88-3.06-1.34
					C436.54,210.8,435.79,210.2,434.9,210.03z"/>
				<path class="st6" d="M383.73,156.03c0.61,0.17,0.69-0.58,0.36-1.6c-0.32-1.02-1.03-2.31-1.86-3.42
					c-0.18,0.34-0.87,0.3-1.77-0.61c0.3,0.3,0.6,0.59,0.92,0.87C383.13,153.27,382.74,153.98,383.73,156.03z"/>
				<polygon class="st6" points="385.86,65.72 385.86,65.71 385.86,65.75 				"/>
				<path class="st6" d="M429.15,86.94c0.78,0.31,0.69,1.59-0.15,3.43c-0.87,1.83-2.44,4.25-5.64,6.64
					c1.99,0.65,4.03,0.34,5.91-0.55c1.89-0.89,3.7-2.35,5.49-3.87c1.78-1.52,3.53-3.11,5.18-4.26c1.65-1.15,3.16-1.88,4.58-1.56
					c0.28-2.99-0.1-4.07-1.21-4.32c-1.1-0.25-2.96,0.35-5.07,0.9c-2.09,0.56-4.44,1.11-5.75,0.88c-1.3-0.22-1.55-1.2,1.2-3.64
					c-0.94,0.01-3.88,1.42-6.74,2.95c-2.85,1.53-5.49,3.2-5.64,3.72c1.04,0.02,1.44,0.56,2.43,0.79
					C424.71,88.29,426.28,88.22,429.15,86.94z"/>
				<path class="st6" d="M406.93,90.07c-1.66,1.12-2.56,2.07-2.88,2.82c-0.64,1.49,1.06,2.22,3.13,2.02
					c3.23-2.05,5.32-3.66,6.78-4.95c1.45-1.28,2.25-2.25,2.73-3.01c0.74-1.17,0.73-1.87,1.22-2.59c-1.43,0.68-3.37,1.55-3.74,1.8
					C410.99,87.64,408.58,88.94,406.93,90.07z"/>
				<path class="st6" d="M418.57,83.67c-0.3,0.23-0.5,0.46-0.65,0.68C419.35,83.67,420.27,83.18,418.57,83.67z"/>
				<path class="st6" d="M375.98,104.54c-0.51,0.7-0.99,1.4-1.41,2.1c0.66,0.03,0.46,0.97,1.16,1.34c0.7,0.37,2.2,0.17,6.04-2.12
					c1.36-1.31,1.1-1.85-0.12-1.97C380.46,103.78,378.3,104.09,375.98,104.54z"/>
				<path class="st6" d="M399.61,85.02c-1.45,0.45-3.56,0.92-5.82,1.37c-2.26,0.46-4.67,0.89-6.62,1.4
					c-1.96,0.49-3.46,1.13-3.79,1.85c1.18,0.28,2.37,0.46,3.56,0.6c6.03-2.21,12.16-4.4,18.38-6.58c-1.24,0.05-2.49,0.08-3.75,0.02
					C401.86,84.16,401.06,84.56,399.61,85.02z"/>
				<path class="st6" d="M399.99,81.57c-0.06,0.19,0.99,0.07,2.8-0.26c0.4-0.32,2.79-1.1,4.73-1.72c1.95-0.61,3.47-1.08,2.31-0.87
					l-6.07,1.29C401.21,80.88,400.04,81.38,399.99,81.57z"/>
				<path class="st6" d="M365.83,92.41c-2.67,1.1-6.48,2.36-9.29,3.4c-1.4,0.53-2.56,1.01-3.18,1.41c-0.31,0.2-0.49,0.38-0.49,0.54
					c0.35,0.08,0.99,0.08,1.88,0.04c1.08,0.12,2.42-0.21,3.71-0.72c1.29-0.5,2.56-1.18,3.54-1.87l0.35-0.26
					c0.02-0.02,0.08-0.04,0.13-0.08l0.17-0.08l0.32-0.16l1.22-0.64c0.77-0.4,1.42-0.76,1.87-1.04
					C366.97,92.4,367.1,92.15,365.83,92.41z"/>
				<path class="st6" d="M277.65,110.8c-0.17-1.31,2.44-3.27,3.8-4.8c1.35-1.53,1.41-2.64-4.37-2.25c-2.86,2.35-2.74,3.45-1.93,4.3
					C275.96,108.91,277.5,109.49,277.65,110.8z"/>
				<path class="st6" d="M352.33,237.27c0.6,1.21,1.22,2.41,1.86,3.64c3.91,0.02,7.67,0,11.27-0.09c-2.12-2.29-4.45-3.37-6.75-3.79
					C356.4,236.61,354.13,236.84,352.33,237.27z"/>
				<path class="st6" d="M412.54,226.08c-1.99,0.5-4.91,1.9-7.97,1.41c-0.16,0.1-0.32,0.2-0.47,0.31c-0.74,0.5-1.41,1.09-2.03,1.73
					c-0.31,0.32-0.61,0.66-0.89,1.01l-0.21,0.27l-0.06,0.07c-0.03,0.01-0.06,0.01-0.08,0.02l-0.17,0.05l-0.68,0.22
					c-1.83,0.6-3.7,1.48-5.67,2.48c-1.98,1.02-4.06,2.17-6.3,3.25c-2.25,1.09-4.64,2.1-7.19,2.74c-1.99,2.24-4.17,4.67-6.59,7.33
					c5.47-0.69,11.98-1.93,17.98-3.46c3.01-0.76,5.93-1.6,8.63-2.48l1.99-0.66l0.48-0.17c0.15-0.06,0.36-0.1,0.45-0.18l0.7-0.47
					c0.94-0.64,1.94-1.33,2.98-2.08c2.65-1.92,5.54-4.22,8.13-6.83C415.7,226.12,414.54,225.59,412.54,226.08z"/>
				<path class="st6" d="M487.56,135.17l-0.08-1.25l-0.12-1.28l-0.17-1.72l-0.11-0.93c-0.01-0.02-0.02-0.1-0.02-0.09l-0.01-0.01
					l-0.02-0.02l-0.03-0.04l-0.06-0.09l-0.03-0.04l-0.02-0.02c0.07,0.6-0.58-5.25-0.31-2.78l-0.01-0.02l-0.01-0.06l-0.23-0.75
					c-0.15-0.5-0.31-0.98-0.47-1.46c-0.33-0.94-0.69-1.83-1.06-2.65c-0.75-1.65-1.55-3.05-2.36-4.16c-1.62-2.23-3.18-3.31-4.43-3.27
					c-1.26,0.04-2.21,1.18-3,3.45c-0.14,2.59-0.05,5.29,0.04,8.09l0.08,2.12l0.01,0.27l0.01,0.13v0.07v0.02
					c-0.05-0.42,0.42,3.78,0.22,2v0.01l-0.04,0.17c-0.01,0.03-0.02,0.03-0.02,0.1l0.02,0.58l0.01,1.17c-0.04,2.2-0.2,4.21-0.43,6.09
					c-0.46,3.73-1.15,6.84-1.82,9.56c-0.68,2.73-1.38,5.09-2.08,7.24c-1.41,4.27-2.89,7.76-4.79,10.45c-1.91,2.67-4.25,4.5-7.4,5.03
					c-2.63,0.53-4.41,0.53-5.63,0.26c-1.21-0.27-1.83-0.82-2.04-1.58c-0.42-1.51,0.79-3.8,2.39-6.66c1.59-2.84,3.57-6.36,4.54-9.98
					c0.47-1.8,0.68-3.6,0.43-5.12c-0.24-1.52-0.95-2.7-2.21-3.33c0.3,1.9-1.98,2.09-4.3,2.61c-1.17,0.27-2.35,0.62-3.29,1.37
					c-0.66,0.52-1.19,1.23-1.56,2.26c0.55-2.78,0.07-4.44-0.91-5.3c-1.16-1.03-2.98-1.09-4.92-1.2c-1.93-0.09-3.99-0.17-5.67-0.83
					c-1.69-0.64-2.96-1.87-3.55-4.03c-2.31,1.09-4.27,1.89-5.97,2.47c0.09-0.12,0.2-0.26,0.29-0.38c1.17-1.5,2.3-2.74,3.31-3.71
					c2.02-1.96,3.51-2.7,3.87-2.83c0.19-0.08,0.11-0.02-0.23,0.03h-0.02h-0.01l0,0c-0.29,0.07,0.12-0.03,0.85-0.2
					c1.37,0.16,2.81,0.31,4.3,0.38c2.39,0.12,4.94-0.01,7.44-0.74c1.24-0.36,2.46-0.85,3.63-1.49l0.44-0.16l0.22-0.08l0.06-0.02
					c-0.02-0.13,0.03,0.3-0.03-0.3l0.01-0.01l0.01-0.01l0.03-0.01l0.11-0.06l0.84-0.44c0.56-0.29,1.11-0.57,1.65-0.84
					c2.17-1.06,4.27-1.85,6.32-1.73c0.59-2.31,0.73-4.79,0.45-7.18c-0.27-2.39-0.93-4.68-1.82-6.71c-1.79-4.08-4.38-7.1-7-9.23
					c-2.64-2.13-5.36-3.45-7.99-4.31c-0.66-0.21-1.32-0.4-1.97-0.56c-0.49-0.09-0.75-0.04-1.12-0.04c-0.7,0.02-1.42,0.08-2.18,0.15
					c-3.02,0.31-6.59,0.84-9.81,0.56c-3.18-0.28-6.04-1.35-6.54-4.1c-0.28-1.23-1.61-2.07-3.75-1.99c-2.13,0.08-5.24,1.04-8.84,3.37
					c-3.27,2.22-4.64,3.62-4.72,4.55c-0.09,0.93,1.08,1.37,2.72,1.66c1.65,0.29,3.75,0.41,5.65,0.69c1.9,0.28,3.6,0.72,4.63,1.65
					c-3.82,1.81-7.16,2.42-10.06,2.42c-2.9-0.01-5.34-0.65-7.54-1.4c-2.21-0.76-4.16-1.63-6.44-2.18c-2.29-0.56-4.91-0.78-8.81-0.27
					c-0.74,1.16-1.35,2.31-1.93,3.51c-0.63,1.22-1.22,2.5-1.77,3.84c-5.12,1.44-8.54,1.53-10.84,0.99c-2.3-0.54-3.5-1.7-4.31-2.94
					c-0.8-1.25-1.23-2.57-2.05-3.6c-0.58-1.14-1.32-2.08-3.6-2.34c3.87-1.07,7.65-2.16,11.35-3.25c-1.13-0.19-1.35-0.78-1.23-1.46
					c0.12-0.68,0.58-1.45,0.66-2.01c0.16-1.12-1.23-1.4-10.7,1.58c0.55,0.66-0.1,1.48-0.06,2.06c0.03,0.58,0.76,0.91,3.9,0.54
					c-2.66,1.23-5.11,1.92-7.48,2.47l-3.5,0.77c-0.57,0.13-1.14,0.26-1.7,0.41c-0.51,0.13-0.93,0.23-1.37,0.36
					c-2.8-0.23-6.8-0.32-9.7-0.89c-1.45-0.28-2.63-0.68-3.22-1.26c-0.27-0.3-0.57-0.58-0.11-1.1c0.36-0.48,0.97-1.03,1.92-1.66
					c-0.49,0.05-0.96,0.08-1.42,0.11l-0.35,0.02c-0.05,0-0.12,0.01-0.16,0.01l-0.07-0.02c-0.1-0.03-0.18-0.06-0.26-0.09
					c-0.32-0.13-0.52-0.31-0.65-0.5c-0.11-0.2-0.15-0.42-0.11-0.66c0.12-0.26,0.3-0.53,0.49-0.8c1.12-1.51,3.2-3.03,2.78-3.54
					c-0.39-0.5-3.35-0.07-11.85,2.61c3.49-2.23,7.61-4.51,11.92-6.87c4.3-2.36,8.8-4.78,12.97-7.3c4.18-2.53,8.01-5.12,10.97-7.97
					c2.97-2.87,5.06-5.97,5.96-9.91c0.24-0.03,0.46-0.06,0.69-0.09c0,0.02,0.01,0.03,0.01,0.04c0.01-0.01,0.02-0.03,0.02-0.04
					c6.24-0.77,9.1-2.22,11.37-3.88c0.48-0.34,0.93-0.7,1.39-1.05c0.52,0.23,1.03,0.49,1.48,0.75c0.94,0.55,1.72,1.15,2.09,1.72
					c0.08,0.14,0.16,0.27,0.18,0.4c0.02,0.07,0.03,0.12,0.02,0.18c-0.01,0.03,0,0.06-0.01,0.08l0.06-0.19l0.2-0.59
					c0.69-2.04,1.38-3.91,2.09-5.62c0.07-0.01,0.13-0.03,0.21-0.04c1.49,0.66,3.17,0.79,4.86,0.67c1.69-0.12,3.4-0.5,5.06-0.94
					c1.83-0.41,2.79-1.01,4.02-1.43c1.18-0.42,2.35-0.72,3.56-0.66c-0.06-0.69-0.14-1.42-0.24-2.17c-0.05-0.36-0.11-0.76-0.14-1.28
					c-0.05-0.49-0.11-0.97-0.18-1.45c-0.3-1.9-0.86-3.68-1.61-5.23c-0.1-0.21-0.2-0.41-0.29-0.57c-0.11-0.22-0.21-0.41-0.33-0.61
					c-0.22-0.39-0.49-0.75-0.76-1.08c-0.55-0.67-1.17-1.22-1.82-1.67c-1.31-0.89-2.72-1.43-4.13-1.84c-2.84-0.79-5.77-1.09-8.71-1.3
					c-2.96-0.2-5.94-0.24-8.94-0.2c-6,0.11-12.06,0.6-18.03,1.73c-0.96,0.19-1.92,0.39-2.88,0.61l-1.59-0.39
					c-0.12-0.03-0.1-0.02-0.1-0.01l-0.02,0.01l-0.03,0.02l-0.07,0.04l-0.14,0.08l-0.28,0.17c-0.37,0.22-0.75,0.44-1.15,0.65
					c-0.38,0.21-0.77,0.42-1.16,0.62c-3.22,0.96-6.38,2.17-9.49,3.7c-2.06,0.56-4.24,1.03-6.54,1.35c4.53-0.13,1.77,2.76-2.13,6.45
					c-0.26,0.23-0.53,0.49-0.78,0.73c-1.39,0.53-2.8,0.86-4.35,1.17l-5.63,1.05c0.74,0.62,1.54,1.21,2.36,1.77
					c0.69,0.47,1.36,0.92,2.03,1.36c-1.82,1.81-3.4,3.51-4.54,4.87c2.53-0.98,5.09-1.96,7.7-2.91c0.66,0.39,1.33,0.77,2,1.13
					c3.24,1.75,6.58,3.23,9.98,4.5c0.75,0.28,1.51,0.55,2.27,0.82c-4.63,1.98-9.73,3.8-14.84,5.71c-6.39,2.37-12.78,4.89-18.06,7.7
					c-5.28,2.79-9.43,5.88-11.25,8.85c8.34-1.02,10.18-2.95,16.84-3.23c0.25,1.31,2.7,1.38,3.97,1.82c1.27,0.43,1.32,1.2-2.98,3.63
					c-4.58,1.71-6.54,2.89-7.24,3.75c-0.69,0.87-0.12,1.43,0.45,1.97c0.57,0.54,1.14,1.07,0.56,1.9c-0.58,0.84-2.32,1.99-6.25,3.87
					c-4.72,1.58-7.26,2.18-8.68,2.25c-1.42,0.06-1.7-0.4-1.79-0.93c-0.18-1.05,0.39-2.39-5.74-0.63c-3.04,1.29-6.03,2.6-8.99,3.94
					c-0.54,0.93-3.61,2.64-6.59,4.45c-2.98,1.82-5.9,3.78-6.33,5.11c1.03,0.37,2.79,0.55,5.5,0.39l-5.94,1.85
					c0.72,0.13,1.42,0.29,2.13,0.5c0.18,0.05,0.33,0.11,0.56,0.16l0.68,0.15l1.31,0.3c1.71,0.39,3.27,0.77,4.75,1.15
					c2.95,0.74,5.58,1.46,8.18,2.06c5.2,1.17,10.36,1.88,17.04,0.62c2.88,2.64,7.49,4.87,13.41,6.82c5.92,1.94,13.15,3.61,21.1,5.18
					c3.95,0.8,8.32,1.45,13.03,1.9c4.71,0.46,9.77,0.71,14.89,0.87c5.13,0.17,10.31,0.26,15.32,0.46c5.02,0.2,9.87,0.5,14.5,1.03
					c0.78,2.32,1.76,4.65,2.92,7.02c3.07,0.82,5.68,1.36,7.93,1.66c1.65,2.41,3.55,4.64,4.28,7.11c-0.09,0.31-0.2,0.63-0.32,0.94
					l-0.19,0.49l-0.11,0.25l-0.03,0.06l-0.01,0.02c0.17-0.2-0.38,0.46,0.37-0.45v0.01l-0.01,0.02l-0.03,0.08
					c-0.15,0.45-0.31,0.88-0.5,1.28c-0.39,0.79-0.87,1.5-1.41,2.11c-1.09,1.23-2.48,2.15-4,2.93l-0.58,0.28
					c-0.19,0.09-0.4,0.2-0.54,0.22c-0.32,0.09-0.64,0.17-0.96,0.25c-0.64,0.15-1.29,0.26-1.9,0.36c-1.25,0.22-2.41,0.39-3.38,0.74
					c-1.3,0.47-2.21,1.25-2.57,3c-1.71-4.08-3.41-6.45-4.83-7.93c-1.42-1.46-2.59-2-3.51-1.97c-0.93,0.03-1.63,0.66-2.19,1.62
					c-0.56,0.94-0.99,2.23-1.34,3.45l-0.54,1.97c-0.03,0.06-0.06,0.14-0.1,0.19c-0.07-0.03-0.14-0.07-0.21-0.09
					c-0.13-0.04-0.25-0.07-0.36-0.08c-0.21-0.01-0.39,0.07-0.52,0.21c-0.27,0.28-0.4,0.85-0.45,1.6c-0.1,1.49,0.14,3.7,0.33,5.87
					c0.19,2.17,0.31,4.29-0.16,5.54c-0.46,1.25-1.56,1.61-3.63,0.34c-1.22-2.82-1.27-4.76-0.99-6.39c0.28-1.63,0.91-2.93,1.38-4.31
					c0.48-1.39,0.79-2.85,0.64-4.74c-0.13-1.88-0.76-4.19-1.79-7.1c-0.36,1.16-0.84,2.27-1.44,3.34c-0.32,3.01-0.79,6.34-1.52,9.47
					c-0.99,4.35-2.5,8.31-4.63,10.55c-1.87-0.64-4.76-1.6-4.21-4.32c2.06-0.77,2.93-3.03,3.1-5.69c0.17-2.66-0.28-5.7-0.99-8.06
					c-0.91,1.16-1.54,1.87-2.11,2.59c-0.57,0.73-1.07,1.47-1.84,2.66c-0.04,2.58-0.03,4.55-0.15,5.98
					c-0.12,1.43-0.36,2.32-0.75,2.81c-0.4,0.49-0.93,0.56-1.59,0.4c-0.16-0.04-0.33-0.1-0.5-0.18l-0.27-0.11l-0.32-0.15
					c-0.51-0.25-1.07-0.54-1.66-0.86c-2.35-1.27-5.2-2.98-8.16-3.85c-2.96-0.87-6.03-0.88-8.7,1.2c-6.58,2.02-10.1,1.57-12.22-0.36
					c-2.1-1.92-2.77-5.31-3.43-8.93c-0.65-3.62-1.28-7.47-3.36-10.26c-2.07-2.78-5.62-4.52-11.91-3.63
					c1.05,4.51,0.45,7.11-1.06,8.55c-1.51,1.45-3.97,1.76-6.82,1.73c-2.85-0.03-6.1-0.4-9.16-0.38c-3.06,0.02-5.91,0.44-7.9,1.88
					c-3.12-0.51-5.18-1.95-7.01-3.97c-1.83-2.02-3.44-4.61-5.65-7.35c-1.88,1.78-6.93,2.67-7.66,5.97
					c1.8,11.32,6.12,22.32,11.22,33.15c5.13,10.83,10.98,21.49,16.61,31.98c0.46-0.37,0.86-0.71,0.93-1.2
					c3.74,0.47,7.85,3.02,12.32,4.42c4.48,1.4,9.36,1.66,15.24-2.45c-1.74-1.52-2.45-2.93-3.46-4.41c-1.01-1.47-2.31-3.03-5.25-4.73
					c3.78-5.13,6.23-4.02,8.32-1.47c2.11,2.56,3.86,6.58,6.76,7.39c-1.97-1.97-1.08-3.68,0.89-4.81c1.95-1.13,5-1.67,7.2-1.36
					c1.58,1.3,3.45,2.49,5.56,3.59c1.06,0.56,2.16,1.09,3.32,1.61l0.44,0.2l0.58,0.25l1.44,0.59l2.92,1.19
					c7.89,3.17,16.39,6.34,24.35,9.33c1.39-0.31,2.74-0.6,4.03-0.87c1.67-1.4,4.23-2.12,6.94-2.58c2.73-0.45,5.61-0.66,8.09-0.97
					c2.47-0.3,4.54-0.7,5.68-1.45c0.14-0.09,0.27-0.2,0.38-0.3c0.11-0.12,0.24-0.17,0.25-0.42c0.06-0.41,0.08-0.82,0.06-1.22
					c-0.06-0.8-0.31-1.59-0.77-2.33c0.8-1.37,1.61-2.22,2.45-2.69c1.51-0.87,3.06-0.5,4.8-0.12c1.74,0.39,3.66,0.79,6.15-0.07
					c1.74-3.63,3.86-6.28,6.55-8.22c2.69-1.94,5.95-3.18,9.86-4.09c1.5-1.25,3.27-2.21,5.14-3.15c1.88-0.94,3.88-1.83,5.95-2.77
					l0.39-0.17c0.07-0.04,0.12-0.06,0.17-0.06l0.14-0.02l0.55-0.09l1.11-0.17c0.73-0.12,1.47-0.25,2.2-0.4
					c1.46-0.3,2.89-0.65,4.27-1.14c0.34-0.12,0.68-0.25,1.02-0.39l0.5-0.22l0.25-0.11l0.12-0.06l0.06-0.03l0.03-0.02l0.02-0.01
					l0.01-0.01c3.1,3.21-27.03-27.98-14.23-14.74c4,3.47,8.61,7.66,14.11,12.8l1.06,0.98l0.24,0.22l0.01,0.01l0.03,0.02
					c0.03,0.01,0.06,0.02,0.08,0.03c0.07,0.01,0.13,0.01,0.21-0.01c0.31-0.06,0.71-0.27,1.13-0.59c0.41-0.32,0.84-0.73,1.25-1.22
					c1.68-1.97,3.06-5.13,3.47-9.65c1.96,2.86,4.47,2.28,7.03,0.39c1.27-0.94,2.56-2.21,3.75-3.51c1.2-1.28,2.3-2.59,3.18-3.5
					c1.79-2.14,4.25-5.14,6.99-9.6c1.36-2.25,2.8-4.88,4.22-8.15c1.4-3.28,2.82-7.24,3.83-12.34c0.25-1.28,0.47-2.62,0.64-4.04
					c0.17-1.42,0.3-2.92,0.36-4.47C487.65,138.48,487.65,136.83,487.56,135.17z M392.6,51.17c0.06-0.07,0.11-0.14,0.16-0.22
					c-0.11,0.16-0.22,0.3-0.33,0.46C392.48,51.33,392.55,51.24,392.6,51.17z M392.24,51.68c-0.06,0.08-0.12,0.17-0.17,0.25
					c0.04-0.05,0.07-0.11,0.11-0.15C392.19,51.75,392.22,51.71,392.24,51.68z M391.81,52.31c-0.02,0.02-0.03,0.05-0.05,0.07
					C391.78,52.36,391.79,52.34,391.81,52.31C391.81,52.32,391.81,52.31,391.81,52.31z M391.05,53.54c-0.07,0.12-0.13,0.22-0.2,0.33
					C390.93,53.76,390.99,53.65,391.05,53.54z M390.67,54.19c-0.05,0.1-0.09,0.18-0.14,0.27C390.58,54.37,390.63,54.28,390.67,54.19
					z M394.05,49.45c0.01,0,0.01-0.01,0.02-0.01C394.07,49.44,394.06,49.45,394.05,49.45C394.05,49.45,394.05,49.45,394.05,49.45z
					 M394.97,48.62c-0.06,0.04-0.11,0.09-0.17,0.13C394.86,48.71,394.92,48.66,394.97,48.62z M394.67,48.87
					c-0.03,0.02-0.05,0.04-0.08,0.06C394.62,48.91,394.64,48.89,394.67,48.87z M395.05,48.56c0.02-0.01,0.04-0.03,0.06-0.04
					c0.01-0.01,0.02-0.01,0.03-0.02c-0.06,0.04-0.11,0.08-0.16,0.12C395,48.6,395.02,48.59,395.05,48.56z M395.56,48.22h-0.01h-0.01
					l-0.02,0.01l-0.15,0.03L395.56,48.22L395.56,48.22z M388.65,49.65l-0.07-0.02l-0.04-0.01c0.05,0.02,0.1,0.03,0.15,0.04
					L388.65,49.65z M352.67,59.62c-1.03-3.33,2.25-3.04,4.64-4.7c2.22,0.53,4.46,1.47,6.37,2.81c-1.79,1.79-3.57,3.32-5.44,4.68
					C355.15,61.7,352.38,61.18,352.67,59.62z M392.89,50.8c0.07-0.1,0.15-0.19,0.22-0.28c0.08-0.1,0.16-0.2,0.23-0.28
					C393.19,50.42,393.03,50.61,392.89,50.8z M387.12,49.26l-17.68-4.51l0.55,0.13L387.12,49.26z M439.07,133.78l-0.01,0.01
					l-0.09,0.09c-0.06,0.06-0.11,0.12-0.17,0.17c-0.07-0.02-0.14-0.04-0.21-0.07c-0.07-0.03-0.13-0.05-0.21-0.03l0,0
					C440.21,133.51,441.34,133.24,439.07,133.78z"/>
			</g>
		</g>
	</g>
	<path class="st7" d="M750,432.65c-8.89-1.74-17.8-3.35-26.52-5.05c-8.51-1.65-15.52-5.12-23.65-7.76
		c-6.22-2.02-12.69-3.91-18.9-6.12c-3.66-3.63-7.04-7.52-8.37-10.09c-2.53-4.87-2.69-14.35-2.64-17.91c0.05-3.56,0.05-10.68-1-17.33
		c-1.05-6.65,0.58-12.2,0.58-12.2l22.03-20.74c0,0,6.9-1.99,13.91-2.09c7.01-0.11,14.44-1.99,15.76-2.2
		c1.32-0.21,0.05-0.52,0.05-0.52s-5.06-0.21-12.33,0.1c-7.27,0.31-13.07-0.63-13.07-0.63l11.8-8.85c0,0-4.22-9.9-5.11-11.68
		c-0.9-1.78-1.42-1.83-1.84-1.62c-0.42,0.21,0.05,1.83,0.05,1.83l3,10.95c-4.85,2.25-17.44,11.84-17.44,11.84
		c0.84-11.1-0.32-20.01-0.32-20.01c4.01-2.41,10.22-7.07,12.17-8.64c1.95-1.57-0.11-0.47-0.11-0.47c-10.07,4.77-15.28,8.9-15.28,8.9
		c-0.63,4.24,0.42,23.3,0.42,23.3c-6.22,4.45-16.76,18.22-16.76,18.22l-3.69-2.2c2.21-2.93,1.05-4.35,3.11-5.76
		c2.05-1.41,4.37-4.19,6.64-6.39c2.27-2.2,0.05-1.1,0.05-1.1l-7.06,3.35c0,0,2.69-4.98,2.85-7.12c0.16-2.15,1.63-5.97,3.79-8.07
		c2.16-2.09,4.16-8.75,5.22-10.63c1.05-1.89-0.42-0.63-0.42-0.63c-4.37,3.46-9.33,11.73-9.33,11.73l-7.8-4.35
		c0,0,1.47-4.92,2.27-7.49c0.79-2.57,2.95-7.33,3.27-8.27c0.32-0.94-0.37-0.42-0.37-0.42s-2.27,2.36-4.06,6.39
		c-1.79,4.03-4.58,8.07-4.58,8.07s-4.9-1.94-6.01-2.41c-1.11-0.47-0.32,0.31-0.32,0.31c2.53,3.25,16.18,12.04,16.18,12.04
		c-3.06,4.5-7.96,22-7.96,22c-4.69-5.03-24.56-18.22-24.56-18.22s1.26-1.41,1.58-4.08c0.32-2.67,4.22-9.01,7.11-14.24
		c2.9-5.24,0.69-2.83-0.63-0.52c-1.32,2.3-5.48,7.28-5.48,7.28s-2.27-8.17-2.48-9.32c-0.21-1.15-0.32,0.16-0.32,0.16
		c0.16,5.18,1.48,10.95,1.48,10.95c-1.42,1.62-4.74,7.49-4.74,7.49s-1.48-0.73-3.74-1.15c-2.27-0.42-9.01-3.56-10.12-4.14
		c-1.11-0.58-0.26,0.26-0.26,0.26c5.06,4.35,12.96,6.96,12.96,6.96c3,6.02,11.91,11.84,12.96,12.52c1.05,0.68,0.26,0.89,0.26,0.89
		c-3.85,0.1-16.39,3.67-18.13,4.14c-1.74,0.47-0.37,0.58-0.37,0.58l21.98-1.41l15.65,10.53c0,0,0.32,22,0.95,30.48
		c0.35,4.73,0.11,9.02-0.85,12.7c-1.21-0.62-2.44-1.21-3.7-1.73c-11.57-4.82-22.95-9.97-34.59-14.74c-3.36-1.38-6.42-3.36-9.99-4.38
		c-12.77-3.66-25.03-8.16-37.66-12.18c-3.54-1.13-6.88-2.12-10.16-3.22c0.49-0.25,0.98-0.47,1.35-0.56c0,0-1.41-0.68-2.55-0.13
		c0.97-0.56,4.35-2.48,5.07-2.51c0,0-1.46-0.3-2.44,0.08c0,0,3.85-2.5,4.94-2.77c0,0-2.56,0-5,1.26c0,0,3.66-3.67,4.03-6.28
		c0,0-3.96,2.9-5.69,5c0,0-0.02-0.17,0.01-0.42c1.2-2.12,2.88-4.88,4.94-7.68c4.31-5.86,7.22-10.91,7.22-10.91l3.74-6.86l-8.71-10.1
		l-2.91-1.4l-16.02-4.18c0,0-4.88,2.19-5.78,2.63c-0.02-0.04-0.03-0.06-0.03-0.06s-0.48,0.5-0.62,0.86
		c-0.08,0.22-0.38,0.58-0.63,0.82c-0.15,0.12-0.29,0.22-0.4,0.23c-0.01,0-0.02,0-0.04,0c-0.01,0-0.02,0-0.03,0
		c-0.31-0.11-1.88-0.04-1.88-0.04l-3.08,1.28c0.52,1.03-0.19,3.79-0.26,4.63c-0.07,0.84-0.23,2.11-0.2,4.55
		c0.04,2.44-1.99,15.73-1.99,15.73s-1.19-3.81-0.59-5.82c0,0-2.26,3.95-1.26,6.99c0,0-1.47-2.93-1.75-4.21c0,0-1.25,3.15,1.75,7.39
		c0,0-0.14-0.07-0.34-0.19c-0.41-0.3-0.75-0.55-1.05-0.77c-0.24-0.23-0.45-0.47-0.54-0.73c0,0-0.01,0.13-0.01,0.34
		c-1.18-0.79-2.15-1.12-5.87-2.21c-5.48-1.61-11.27-2.89-17.08-4.09c1.46-0.25,5.74-0.87,9.26-0.16c0,0-3.34-2.89-9.43-2.92
		c0,0,2.81-1.61,6.42-1.12c0,0-1.38-0.92-5.3-1.04c0,0,1.09-1.5,3.89-1.47c0,0-2.97-1.67-7.98,0.73c0,0,1.17-1.73,2.05-2.31
		c0,0-2.72,0.82-4.32,2.47c1.28-3.73,3.51-10.12,4.58-12.59c1.28-0.23,4.12-0.49,7.63,0.8l0.01-0.02c0.28-0.16,0.64-0.42,0.93-0.58
		l2.58-5.29c0,0-5.4-2.39-8.58-2.87c0,0,0.98-5.12,3.44-9.82l-6.42-1.81c0,0-0.47,0.2-0.93,0.6l6.41,1.81l-5.86-1.65l-0.56-0.16
		c0,0-3.26,6.36-3.86,10.23c-1.55-0.26-4.84-0.71-6.71-0.2c0,0-0.53,0.23-0.93,0.6c0,0,0,0-0.01,0c0,0-1.06,3.54-0.56,5.98
		l6.66,0.86c0,0-3.38,9.64-4.16,14.36c0.04-1.38-0.3-3.71-2.55-5.63c0,0,0.25,1.05,0.25,1.55c0,0.49-0.07,1.76,0.3,2.69
		c-0.2-0.5-1.73-3.79-7.53-5.42c0,0,3.33,2.41,4.56,4.63c0,0-3.34-3.53-7.02-2.23c0,0,3.4,1.97,4.93,3.35c0,0-1.97-1.17-4.88-0.4
		c-5.41-2.17-9.23-6.04-13.53-9.34c-2.04-1.57-3.99-3.11-5.87-4.8c-4.38-3.91-9.63-6.74-14.52-10.2c-2.86-2.02-4.04-4.42-7.6-5.57
		c-1.32-0.43-1.86-0.22-3.33-0.84c-1-0.42-1.73-1.21-2.89-1.5c-3.95-0.99-6.02,2.46-10.23,1.35c-1.84-0.48-4.45-2.37-5.72-3.57
		c-2.65-2.49-2.06-2.87-6.93-2.83c-7.22,0.07-15.35-0.69-22.49,0.23c-3.61,0.46-6.92,0.44-10.58,0.67
		c-4.57,0.28-8.02,4.9-11.65,6.88c-1.16,0.63-2.33,1.04-3.51,1.3c-3.34-2.16-6.61-6.14-10.85-6.4c-3.66-0.23-6.96-0.21-10.58-0.67
		c-7.14-0.92-15.28-0.16-22.49-0.23c-4.87-0.04-4.29,0.34-6.93,2.83c-1.27,1.19-3.88,3.09-5.72,3.57c-4.21,1.1-6.28-2.34-10.23-1.35
		c-1.16,0.29-1.89,1.07-2.89,1.5c-1.46,0.62-2.01,0.41-3.33,0.84c-3.56,1.14-4.74,3.55-7.6,5.57c-4.89,3.46-10.14,6.29-14.52,10.2
		c-1.89,1.69-3.83,3.23-5.87,4.8c-2.79,2.15-5.38,4.53-8.33,6.53c-0.39,0.09-0.78,0.18-1.18,0.27c-2.07-0.14-7.59-0.12-14.16,3.14
		c0,0,2.67-3.82,7.99-5.73c0,0-2.56-0.13-8.03,2.41c0,0,0.41-2.51,4.26-4.4c0,0-5.29,0.07-10.41,6.34c0,0,0.35-2.85,1.12-4.12
		c0,0-3.13,2.83-4.12,5.87c-0.96-5.26-2.56-14.31-2.89-17.95c1.59-1.15,5.3-3.4,11.04-4.3l0-0.03c0.28-0.38,0.57-0.93,0.84-1.32
		l-0.32-7.98c0,0-9.14,0.91-13.85,2.52c0,0-2.38-6.69-2.43-13.92l-10.12,2.28c0,0-0.49,0.56-0.83,1.34l10.1-2.27l-9.24,2.08
		l-0.88,0.2c0,0,0.16,9.72,2.16,14.68c-2.31,0.76-7.16,2.5-9.35,4.38c0,0-0.56,0.64-0.84,1.34c0,0,0,0-0.01,0.01
		c0,0,1.12,4.9,3.59,7.42l9.76-3.56c0,0,2.1,12.05,4.32,18.54c-0.11,0.02-0.23,0.05-0.34,0.08c-1.19-1.5-3.27-3.18-6.83-3.76
		c0,0,1.11,1.07,1.48,1.65c0.34,0.54,1.11,1.96,2.19,2.82c-0.01,0-0.02,0-0.03,0.01c-1.1-0.69-5.58-3-14.07-1.08
		c0,0,6.06,0.53,9.41,2.21c-0.04,0.01-0.07,0.02-0.11,0.03c-1.43-0.3-7.35-1.28-10.93,2.28c0,0,1.29,0,2.98,0.05
		c-1.81,0.65-2.23,1.11-4.33,2.63c-3.27,2.35-7.23,3.95-11.23,5.42c-3.09,1.12-5.89,2.21-8.8,3.55c-2.42,1.11-4.82,2.03-7.24,2.88
		c0.04-1.79,0.46-3.88,1.92-5.7c0,0,0.18-1.05-0.79-0.13c-0.71,0.67-2.03,2.17-2.72,4.98c0.83-5.35,4.69-11.52,4.69-11.52
		c-4.1,0.81-6.4,4.42-7.68,8.42c-1.04-0.07-2.87,0.07-4.49,1.51c-2.42,2.15-4.5,2.44-4.5,2.44l-0.59-16.75
		c0.3-25.77-10.8-32.02-20.9-27.06c-3.76,1.85-7.1,4.85-8.59,8.49c-3.37,5.06-3.12,11.51-1.21,17.3c2.23,6.77,7.69,17.61,9.7,21.51
		c-3.15,1.94-4.8,4.47-4.8,4.47l-1.42,2.25c-0.22,0.29-0.34,0.46-0.34,0.46l1.25,1.5c-2.65-1.18-5.31-1.69-7.67,0.31
		c0,0,3.19,0.2,6.05,0.88c-0.08,0.03-0.16,0.07-0.23,0.11c0,0-0.5,0.2-0.08,0.38c-2.23,0.69-4.46,1.37-6.71,2.01
		c-3.57,1.02-6.63,3-9.99,4.38c-10.38,4.26-20.56,8.8-30.85,13.16c-0.43-1.72-0.93-3.43-1.16-5.19c-0.38-2.88-0.69-5.76-0.98-8.64
		c-0.27-2.72-0.52-5.46-1.02-8.15c-0.25-1.33-0.61-2.63-0.9-3.95c-0.22-1.01-0.69-2.75-0.57-3.96c1.21-1.15,2.45-2.29,3.82-3.25
		c2.79-1.97,5.98-3.37,7.95-6.27c0.01-0.01,0.01-0.02,0.02-0.02c0.04-0.05,0.07-0.11,0.07-0.16c0.04-0.82-0.55-1.89-0.71-2.72
		c-0.2-1-0.53-2.45-0.18-3.46c0.04-0.11,0-0.2-0.06-0.27c-0.02-0.1-0.07-0.2-0.18-0.26c-0.58-0.36-1.28-0.31-1.93-0.49
		c-0.31-0.09-0.6-0.19-0.91-0.21c-0.07-0.04-0.17-0.05-0.27-0.04c-1.59,0.23-3.22,1.05-4.72,1.59c-1.39,0.5-2.79,1.11-4.17,1.6
		c-0.19-1.34-0.14-2.72-0.34-4.06c-0.29-2.08-0.64-4.15-0.94-6.23c-0.52-3.59-1.21-7.19-1.5-10.81c0.17-0.2,0.05-0.59-0.26-0.58
		c-0.7,0.03-1.32-0.13-1.96-0.4c-0.35-0.15-0.74-0.47-1.14-0.35c-0.08,0.02-0.13,0.08-0.16,0.14c-2.04,0.86-4.13,1.45-6.27,2.01
		c-2.2,0.58-4.37,1.33-6.59,1.83c-0.19,0.04-0.24,0.25-0.18,0.4c-0.02,0.03-0.03,0.07-0.04,0.12c-0.13,1.16,0.17,2.36,0.37,3.5
		c0.33,1.84,0.6,3.69,0.87,5.54c0.37,2.5,0.68,5.01,0.81,7.53c0.11,2.1,0.28,4.21,0.82,6.24c-0.01,0-0.02,0.01-0.03,0.01
		c-1.13,0.8-2.46,1.13-3.79,1.46c-1.84,0.45-3.66,1.03-5.46,1.58c-1.62,0.5-3.16,1.21-4.78,1.67c-1.04,0.29-2.12,0.64-2.92,1.38
		c-0.13,0.04-0.23,0.16-0.18,0.34c0.4,1.53,0.56,3.06,0.62,4.63c0.04,1.06-0.17,2.3,0.23,3.3c0,0.03,0.01,0.06,0.02,0.08
		c0,0.11,0.06,0.22,0.18,0.23c0.28,0.04,0.56,0.06,0.85,0.08c0.35,0.05,0.71,0.09,1.03,0.05c0.42,0.01,0.84,0.02,1.26,0.05
		c0.39,0.03,0.77,0.07,1.14,0.15c-1.26,0.55-2.44,1.21-3.79,1.6c-0.1,0.03-0.22,0.12-0.23,0.23c0,0.01,0,0.02-0.01,0.03
		c-0.04,0.06-0.05,0.14-0.03,0.23c0.68,2.94-0.16,5.84,0.12,8.78c0,0.05,0.02,0.08,0.03,0.12c-0.01,0.02-0.02,0.04,0,0.05
		c0.03,0.02,0.06,0.05,0.09,0.07c0,0.01,0.01,0.01,0.02,0.01c1.02,0.81,2.73,0.17,3.98,0.39c0.78,0.13,1.55,0.39,2.26,0.72
		c0.56,0.26,0.93,0.74,1.44,1.04c0.04,0.08,0.13,0.14,0.24,0.1c1.35-0.51,2.26-1.86,3.44-2.65c1.86-1.24,3.78-2.41,5.59-3.73
		c0.33-0.24,0.65-0.49,0.96-0.74c0.01,0.6,0.14,1.16,0.29,1.76c0.27,1.11,0.41,2.24,0.58,3.38c0.38,2.48,0.97,4.89,1.19,7.4
		c0.21,2.37,0.44,4.72,0.74,7.08c0.27,2.1,0.04,4.28,0.34,6.36c-8.98,4.17-19.16,6.99-28.79,10.12c-8.13,2.64-15.14,6.1-23.65,7.76
		c-6.3,1.23-12.71,2.41-19.14,3.63V500h750V432.65z"/>
	<g>
		<g class="st8">
			<g>
				<path class="st7" d="M285.08,323.46l-4.26-6.46l-0.55-0.76c0,0-0.24-0.46-0.39-0.59c-0.15-0.13-2.6-3.69-2.6-3.69l-0.82-0.97
					c0,0-0.23,0.8-0.54,0.83c-0.31,0.04-0.66-0.47-0.66-0.47l0.28-0.68c0,0-0.4-0.07-0.16-0.5c0.24-0.43,0.53-0.87,0.53-0.87
					l-0.75-1.14c0,0-0.35-0.04-0.33-0.24c0.01-0.19-0.27-0.08-0.4-0.4c-0.13-0.32-0.09-0.67-0.09-0.67l-1.14-0.28l-1.59-5.09
					l4.07,3.27c0,0-0.12,0.28-0.23,0.47c-0.11,0.19-0.25,0.85-0.25,0.85s0.58,0.51,0.52,0.81c-0.06,0.31,0.09,0.34,0.35,0.28
					c0.26-0.06,0.37-0.11,0.39,0.26c0.01,0.37,0.21,0.61,0.31,0.76c0.11,0.14,0.66-0.22,0.8,0.14c0.15,0.36,0.31,0.29,0.31,0.29
					s1.98-1.66,2.4-2.11c0.27-0.25,0.5-0.49,0.14-0.57c-0.36-0.08-0.68-0.18-0.45-0.52c0.24-0.33,0.24-0.33,0.24-0.33l-1.2-1.33
					l-2.15-5.42l4.33,4.24l0.07,1.98c0,0,0.53-0.08,0.52,0.25c0,0.33,0.02,0.51,0.02,0.51l0.34,0.04c0,0,2.98-1.84,4.08-2.34
					c-0.52-0.25-0.93-0.32-0.72-0.73c0.2-0.41,0.26-0.72,0.13-0.71c-0.14,0.01-0.41-0.3-0.52-0.58c-0.11-0.28-2.28-6.53-2.28-6.53
					l4.01,5.4l-0.46,1.27c0,0,0.73-0.16,1.07-0.02c0.34,0.14,0.24,0.46,0.16,0.73c-0.08,0.27-0.22,0.6-0.22,0.6l4.38-1.95
					c0,0,0.29-0.31,0.16-0.4c-0.13-0.09-0.46-0.09-0.24-0.46c0.22-0.37,0.03-1.04,0.03-1.04l-1.03-0.79l-1.15-6.16l3.35,5.16
					l-0.35,1.41c0,0,0.06,0.26,0.25,0.27c0.19,0.01,0.54-0.04,0.4,0.4c-0.15,0.44-0.15,0.44-0.15,0.44l5.54-2.2l0.23-0.24
					c0,0-0.46-0.09-0.4-0.63c0.06-0.54,0.24-0.33,0.06-0.54c-0.18-0.21-0.83-1.2-0.83-1.2l-0.61-6.43l2.73,5.46l-0.07,1.53
					c0,0,0.38,0.36,0.47,0.46c0.09,0.1,0.02,0.51-0.1,0.65c-0.13,0.15-0.13,0.15-0.13,0.15s1.24-0.61,1.51-0.3
					c0.27,0.31,0.27,0.77,0.17,0.86c-0.1,0.09,0.09,0.34,0.04,0.54c-0.05,0.21-0.03,0.15-0.49,0.39c-0.46,0.24-0.25,0.53-0.25,0.53
					s4.78,15.27,5.37,17.04c0.23,0.79-0.42,1.25-0.82,0.39c-0.4-0.86-3.6-10.29-3.6-10.29l-1.51-4.66l-0.68-1.54l-0.56-0.23
					l0.12-0.61l-4.82,2.37c0,0-0.52,0.54-0.23,0.56c0.29,0.02,0.46,0.32,0.36,0.41c-0.1,0.09,0.01,0.7,0.01,0.7
					s5.11,14.48,5.16,14.6c0.05,0.12,0.52,1.14,0.14,1.25c-0.37,0.11-0.79-0.66-1.06-1.43c-0.27-0.77-5.99-14.58-5.99-14.58
					s-0.08,0.03-0.18-0.21c-0.1-0.24-0.18-0.44-0.18-0.44l-3.97,1.92c0,0-0.48,0.2-0.24,0.33c0.24,0.13,0.27,0.78,0.27,0.78
					l6.41,14.46c0,0,0.48,0.83,0.04,1.01c-0.44,0.18-0.96-0.73-0.96-0.73l-6.64-14.13c0,0-0.38-0.36-0.46-0.55
					c-0.08-0.2-0.22-0.52-0.22-0.52l-3.7,1.91l0.22,0.19c0,0-0.27,0.48-0.3,0.64c-0.03,0.15,0.04,0.22,0.18,0.44
					c0.14,0.22,0.22,0.66,0.22,0.66l5.54,9.77l1.83,3.64c0,0,0.07,0.39-0.37,0.34c-0.44-0.05-0.8-0.7-1.38-1.63
					c-0.57-0.93-3.43-6.02-3.43-6.02s-2.58-4.54-2.67-4.64c-0.09-0.1-0.25-0.27-0.36-0.65c-0.11-0.38,0.2-0.64-0.28-0.91
					c-0.48-0.27-0.79-0.66-0.79-0.66s-1.96,1.14-2.29,1.46c-0.33,0.32-0.93,1.13-0.93,1.13s-0.32,0.36-0.03,0.38
					c0.29,0.02,0.42,0.11,0.38,0.36c-0.04,0.25,5.14,8.02,5.14,8.02s2.42,4.05,2.52,4.38C286.26,323.39,286.12,324.85,285.08,323.46
					z"/>
			</g>
		</g>
	</g>
	<g>
		<g class="st8">
			<g>
				<path class="st7" d="M450.18,314.42l3.22-7.05l0.42-0.83c0,0,0.16-0.49,0.29-0.64c0.13-0.15,2-4.05,2-4.05l0.66-1.09
					c0,0,0.35,0.75,0.67,0.74c0.32-0.01,0.58-0.57,0.58-0.57l-0.38-0.63c0,0,0.39-0.13,0.08-0.51c-0.31-0.39-0.66-0.78-0.66-0.78
					l0.57-1.24c0,0,0.33-0.1,0.29-0.28c-0.04-0.19,0.25-0.12,0.33-0.45c0.08-0.34-0.01-0.67-0.01-0.67l1.09-0.45l0.79-5.28
					l-3.51,3.86c0,0,0.16,0.26,0.3,0.43c0.14,0.17,0.38,0.81,0.38,0.81s-0.5,0.59-0.39,0.88c0.11,0.29-0.04,0.35-0.3,0.33
					c-0.26-0.02-0.39-0.05-0.34,0.32c0.05,0.37-0.11,0.64-0.19,0.8c-0.08,0.16-0.68-0.12-0.77,0.26c-0.09,0.38-0.26,0.34-0.26,0.34
					s-2.21-1.34-2.7-1.72c-0.31-0.21-0.57-0.4-0.22-0.54c0.35-0.14,0.65-0.29,0.36-0.58c-0.29-0.29-0.29-0.29-0.29-0.29l0.99-1.5
					l1.28-5.69l-3.62,4.86l0.24,1.97c0,0-0.53,0-0.48,0.33c0.05,0.32,0.06,0.5,0.06,0.5l-0.33,0.1c0,0-3.23-1.36-4.4-1.68
					c0.48-0.33,0.87-0.46,0.6-0.83c-0.26-0.38-0.37-0.67-0.24-0.68c0.14-0.01,0.35-0.36,0.42-0.65c0.07-0.29,1.25-6.81,1.25-6.81
					l-3.13,5.96l0.65,1.18c0,0-0.74-0.05-1.06,0.14c-0.31,0.19-0.16,0.49-0.05,0.75c0.12,0.25,0.31,0.56,0.31,0.56l-4.63-1.25
					c0,0-0.34-0.26-0.22-0.36c0.11-0.11,0.44-0.16,0.16-0.49c-0.28-0.33-0.2-1.03-0.2-1.03l0.89-0.94l0.18-6.27l-2.51,5.62
					l0.57,1.34c0,0-0.02,0.26-0.21,0.31c-0.19,0.04-0.54,0.05-0.33,0.45c0.21,0.41,0.21,0.41,0.21,0.41l-5.82-1.32l-0.26-0.2
					c0,0,0.44-0.16,0.3-0.68c-0.14-0.52-0.29-0.29-0.14-0.52c0.15-0.23,0.63-1.32,0.63-1.32l-0.4-6.45l-1.85,5.82l0.31,1.5
					c0,0-0.32,0.41-0.39,0.53c-0.07,0.12,0.06,0.5,0.2,0.63c0.15,0.12,0.15,0.12,0.15,0.12s-1.32-0.41-1.54-0.06
					c-0.22,0.35-0.15,0.81-0.04,0.88c0.11,0.07-0.04,0.35,0.05,0.54c0.08,0.2,0.05,0.15,0.55,0.31c0.49,0.16,0.33,0.48,0.33,0.48
					s-2.36,15.84-2.67,17.68c-0.11,0.82,0.61,1.17,0.87,0.25c0.27-0.91,1.97-10.73,1.97-10.73l0.77-4.84l0.44-1.63l0.52-0.32
					l-0.22-0.58l5.13,1.59c0,0,0.6,0.46,0.32,0.52c-0.28,0.07-0.41,0.39-0.29,0.46c0.12,0.07,0.1,0.69,0.1,0.69
					s-2.8,15.11-2.83,15.23c-0.03,0.13-0.34,1.21,0.05,1.26c0.39,0.05,0.68-0.77,0.83-1.58c0.15-0.81,3.66-15.35,3.66-15.35
					s0.08,0.02,0.15-0.23c0.06-0.25,0.11-0.46,0.11-0.46l4.22,1.29c0,0,0.5,0.12,0.29,0.29c-0.22,0.17-0.15,0.81-0.15,0.81
					l-4.09,15.29c0,0-0.35,0.89,0.11,1.01c0.46,0.11,0.83-0.87,0.83-0.87l4.38-15c0,0,0.32-0.41,0.37-0.62
					c0.05-0.21,0.13-0.55,0.13-0.55l3.95,1.31l-0.19,0.22c0,0,0.34,0.44,0.39,0.58c0.05,0.15-0.01,0.22-0.11,0.46
					c-0.1,0.24-0.12,0.68-0.12,0.68l-3.96,10.52l-1.25,3.88c0,0-0.01,0.4,0.42,0.28c0.43-0.12,0.69-0.81,1.11-1.82
					c0.42-1.01,2.45-6.48,2.45-6.48s1.85-4.89,1.92-5.01c0.07-0.12,0.21-0.31,0.26-0.69c0.05-0.39-0.3-0.6,0.14-0.94
					c0.44-0.34,0.68-0.77,0.68-0.77s2.11,0.82,2.49,1.09c0.38,0.27,1.1,0.98,1.1,0.98s0.37,0.31,0.09,0.38
					c-0.28,0.07-0.4,0.17-0.32,0.41c0.08,0.24-3.84,8.72-3.84,8.72s-1.77,4.38-1.81,4.72C449,314.54,449.37,315.96,450.18,314.42z"
					/>
			</g>
		</g>
	</g>
	<g>
		<g class="st8">
			<path class="st7" d="M427.92,269.78v3.83h-2.22v-3.83h-1.11v3.83h-2.22v-3.83h-1.11v3.83h-2.22v-3.83h-1.11v3.83h-2.22v-3.83
				h-1.11v3.83h-2.22v-3.83h-1.11v3.83h-0.8v-68.12h6.91c-5.78-7.9-10.99-16.95-15.55-26.96c-4.55,10.02-9.77,19.07-15.55,26.96
				h6.91v30.24h-11.31v-6.3h10.5c-10.32-11.77-19.65-25.25-27.79-40.18c-3.56,6.54-7.36,12.8-11.36,18.76v-29.63h4.24
				c-3.55-4.85-6.76-10.41-9.55-16.57c-2.8,6.15-6.01,11.72-9.55,16.57h4.24v44.12c-1.9,2.37-3.83,4.68-5.8,6.93h10.5v6.3v21.86
				h-17.35v15.76h-0.27v-3.83h-1.11v3.83h-2.22v-3.83h-1.11v3.83H323v-3.83h-1.11v3.83h-2.22v-3.83h-1.11v3.83h-2.22v-3.83h-1.11
				v3.83H313v-3.83h-1.11v3.83h-2.22v-3.83h-1.11v3.83h-2.22v-3.83h-1.11v3.83h-2.22v-3.83h-1.11v3.83v0.64v7.11v2.06v31.02h127.15
				v-30.75v-2.32v-6.84v-0.64v-3.83H427.92z M424.58,274.25v6.84h-2.22v-6.84H424.58z M421.25,274.25v6.84h-2.22v-6.84H421.25z
				 M417.92,274.25v6.84h-2.22v-6.84H417.92z M414.58,274.25v6.84h-2.22v-6.84H414.58z M411.25,274.25v6.84h-0.8v-6.84H411.25z
				 M328.56,273.98v7.11h-2.22v-7.11H328.56z M325.22,273.98v7.11H323v-7.11H325.22z M321.89,273.98v7.11h-2.22v-7.11H321.89z
				 M318.55,273.98v7.11h-2.22v-7.11H318.55z M315.22,273.98v7.11H313v-7.11H315.22z M311.88,273.98v7.11h-2.22v-7.11H311.88z
				 M308.55,273.98v7.11h-2.22v-7.11H308.55z M302.99,273.98h2.22v7.11h-2.22V273.98z M329.67,281.09v-7.11h0.27v7.11H329.67z
				 M427.92,281.09h-2.22v-6.84h2.22V281.09z"/>
			<g>
				<g>
					<polygon class="st9" points="340.55,272.08 344.42,272.06 344.39,267.76 340.55,267.76 					"/>
					<polygon class="st9" points="344.38,267.22 344.36,263.71 340.55,263.74 340.55,267.22 					"/>
					<polygon class="st9" points="335.98,267.76 336.01,272.11 340.01,272.09 340.01,267.76 					"/>
					<polygon class="st9" points="340.01,263.74 335.96,263.77 335.98,267.22 340.01,267.22 					"/>
					<polygon class="st9" points="353.15,267.22 353.18,263.77 349.12,263.74 349.12,267.22 					"/>
					<polygon class="st9" points="348.58,263.74 344.77,263.71 344.75,267.22 348.58,267.22 					"/>
					<polygon class="st9" points="344.75,267.76 344.72,272.06 348.58,272.08 348.58,267.76 					"/>
					<polygon class="st9" points="349.12,272.09 353.12,272.11 353.15,267.76 349.12,267.76 					"/>
				</g>
				<g>
					<polygon class="st9" points="365.66,272.08 369.53,272.06 369.5,267.76 365.66,267.76 					"/>
					<polygon class="st9" points="369.49,267.22 369.47,263.71 365.66,263.74 365.66,267.22 					"/>
					<polygon class="st9" points="361.09,267.76 361.12,272.11 365.12,272.09 365.12,267.76 					"/>
					<polygon class="st9" points="365.12,263.74 361.07,263.77 361.09,267.22 365.12,267.22 					"/>
					<polygon class="st9" points="378.26,267.22 378.29,263.77 374.23,263.74 374.23,267.22 					"/>
					<polygon class="st9" points="373.69,263.74 369.88,263.71 369.86,267.22 373.69,267.22 					"/>
					<polygon class="st9" points="369.86,267.76 369.83,272.06 373.69,272.08 373.69,267.76 					"/>
					<polygon class="st9" points="374.23,272.09 378.23,272.11 378.26,267.76 374.23,267.76 					"/>
				</g>
				<g>
					<polygon class="st9" points="390.56,272.08 394.43,272.06 394.4,267.76 390.56,267.76 					"/>
					<polygon class="st9" points="394.39,267.22 394.37,263.71 390.56,263.74 390.56,267.22 					"/>
					<polygon class="st9" points="385.99,267.76 386.02,272.11 390.02,272.09 390.02,267.76 					"/>
					<polygon class="st9" points="390.02,263.74 385.97,263.77 385.99,267.22 390.02,267.22 					"/>
					<polygon class="st9" points="403.16,267.22 403.19,263.77 399.13,263.74 399.13,267.22 					"/>
					<polygon class="st9" points="398.59,263.74 394.78,263.71 394.76,267.22 398.59,267.22 					"/>
					<polygon class="st9" points="394.76,267.76 394.73,272.06 398.59,272.08 398.59,267.76 					"/>
					<polygon class="st9" points="399.13,272.09 403.13,272.11 403.16,267.76 399.13,267.76 					"/>
				</g>
				<polygon class="st9" points="385.99,242.31 386.02,246.66 390.02,246.63 390.02,242.31 				"/>
				<g>
					<polygon class="st9" points="406.01,243.94 406.03,240.49 401.98,240.46 401.98,243.94 					"/>
					<polygon class="st9" points="401.43,240.46 397.63,240.43 397.6,243.94 401.43,243.94 					"/>
					<polygon class="st9" points="397.6,244.48 397.57,248.78 401.43,248.81 401.43,244.48 					"/>
					<polygon class="st9" points="401.98,248.81 405.98,248.83 406,244.48 401.98,244.48 					"/>
				</g>
				<g>
					<path class="st9" d="M403.43,218.57c0.8-0.01,1.59-0.01,2.39-0.02c-0.01-1.78-0.02-3.56-0.04-5.34h-2.36V218.57z"/>
					<path class="st9" d="M400.52,213.21c0.01,1.79,0.02,3.59,0.04,5.38c0.82-0.01,1.65-0.01,2.47-0.02v-5.36H400.52z"/>
					<path class="st9" d="M405.78,212.81c-0.01-0.83-0.01-1.67-0.02-2.5c-0.57-1.64-1.44-2.54-2.34-2.7v5.2H405.78z"/>
					<path class="st9" d="M403.03,207.59c-0.97,0.06-1.93,0.97-2.52,2.76c0.01,0.82,0.01,1.65,0.02,2.47h2.51V207.59z"/>
				</g>
				<g>
					<path class="st9" d="M348.17,191.19c0.8-0.01,1.59-0.01,2.39-0.02c-0.01-1.78-0.02-3.56-0.04-5.34h-2.36V191.19z"/>
					<path class="st9" d="M345.26,185.83c0.01,1.79,0.02,3.59,0.04,5.38c0.82-0.01,1.65-0.01,2.47-0.02v-5.36H345.26z"/>
					<path class="st9" d="M350.52,185.44c-0.01-0.83-0.01-1.67-0.02-2.5c-0.57-1.64-1.44-2.54-2.34-2.7v5.2H350.52z"/>
					<path class="st9" d="M347.77,180.21c-0.97,0.06-1.93,0.97-2.52,2.76c0.01,0.82,0.01,1.65,0.02,2.47h2.51V180.21z"/>
				</g>
				<g>
					<path class="st9" d="M357.49,248.73c1.22-0.01,2.44-0.02,3.66-0.02c-0.02-2.72-0.04-5.45-0.05-8.17h-3.6V248.73z"/>
					<path class="st9" d="M353.05,240.53c0.02,2.74,0.04,5.48,0.05,8.23c1.26-0.01,2.52-0.02,3.78-0.02v-8.2H353.05z"/>
					<path class="st9" d="M361.09,239.93c-0.01-1.28-0.02-2.55-0.03-3.83c-0.88-2.51-2.21-3.88-3.57-4.13v7.96H361.09z"/>
					<path class="st9" d="M356.88,231.93c-1.48,0.09-2.95,1.49-3.86,4.22c0.01,1.26,0.02,2.52,0.02,3.78h3.84V231.93z"/>
				</g>
				<g>
					<path class="st9" d="M372.3,248.73c1.22-0.01,2.44-0.02,3.66-0.02c-0.02-2.72-0.04-5.45-0.05-8.17h-3.6V248.73z"/>
					<path class="st9" d="M367.86,240.53c0.02,2.74,0.04,5.48,0.05,8.23c1.26-0.01,2.52-0.02,3.78-0.02v-8.2H367.86z"/>
					<path class="st9" d="M375.9,239.93c-0.01-1.28-0.02-2.55-0.03-3.83c-0.88-2.51-2.21-3.88-3.57-4.13v7.96H375.9z"/>
					<path class="st9" d="M371.7,231.93c-1.48,0.09-2.95,1.49-3.86,4.22c0.01,1.26,0.02,2.52,0.02,3.78h3.84V231.93z"/>
				</g>
				<circle class="st9" cx="365.46" cy="216.32" r="4.96"/>
			</g>
		</g>
		<path class="st10" d="M377.5,303.97v-14.12c0-4.71-3.85-8.56-8.56-8.56h-1.07c-4.71,0-8.56,3.85-8.56,8.56v14.12H377.5z"/>
	</g>
	<g>
		<g class="st8">
			<path class="st7" d="M518.9,184.58c-3.2-0.69-7.27-2.86-8.03-9.32l-0.02-2.88c0,0-2.05-3.37-4.93-4.07l0.62-1.82l-2.28,1.24
				l-1.91-0.29c0,0-0.09-8.46-1.94-13.39l2.74-1.66l-3.51,0.4c0,0-2.19-6.46-6.95-9.77l2.7-1.49l-2.49-0.07
				c0,0-8.55-16.44-13.73-19.5c0,0-0.3-0.97-2.54-0.62l3.5-1.84l-2.58-0.45c0,0,3.28-3.15,17.63-0.19c0,0,4.42,3.95,13.14,5.72
				c0,0,8.87,12.21,15.01,14.97c0,0-3.87,10.72-4.01,16.43c0,0,2.44-2.64,3.15-3.36c0.71-0.72-0.06,4.65-0.06,4.65
				s1.19,0.45,3.02,0.45c1.62,0.84,2.88,0.99,2.88,0.99s1.79-5.13,2.09-4.16c0.3,0.97,1.25,4.43,1.25,4.43
				c2.51-5.13,4.01-16.43,4.01-16.43c6.73,0.38,20.22-6.37,20.22-6.37c8.56,2.45,14.3,0.97,14.3,0.97
				c14.1,3.98,15.57,8.28,15.57,8.28l-2.5-0.79l2.26,3.24c-1.83-1.34-2.54-0.62-2.54-0.62c-6,0.33-21.17,10.99-21.17,10.99
				l-2.25-1.09l1.71,2.57c-5.75,0.75-10.67,5.47-10.67,5.47l-2.93-1.97l1.66,2.74c-3.91,3.53-7.89,11-7.89,11l-1.82-0.62l-1.45-2.15
				l-0.29,1.9c-2.88-0.7-6.25,1.35-6.25,1.35l-1.34,2.54C526.67,185.38,522.06,185.43,518.9,184.58z"/>
			<polygon class="st11" points="522.16,164.78 520.34,160.51 519.07,162.23 			"/>
			<polygon class="st11" points="525.13,165.5 528.72,162.55 529.04,164.66 			"/>
		</g>
		<g class="st8">
			<path class="st7" d="M326.31,111.86c-1.61,0.22-3.88-0.1-5.33-2.98l-0.5-1.34c0,0-1.53-1.23-2.99-1.07l-0.02-0.96l-0.85,0.96
				l-0.94,0.19c0,0-1.48-3.93-3.18-5.92l1-1.24l-1.57,0.78c0,0-2.12-2.64-4.9-3.38l1-1.15l-1.18,0.39c0,0-6.78-6.22-9.71-6.77
				c0,0-0.3-0.4-1.29,0.14l1.32-1.45l-1.28,0.23c0,0,1-2.02,8.2-3.08c0,0,2.73,1.09,7.1,0.44c0,0,6.21,4.19,9.54,4.44
				c0,0,0.01,5.66,0.92,8.35c0,0,0.69-1.64,0.9-2.1c0.21-0.46,0.76,2.18,0.76,2.18s0.63,0.01,1.48-0.3c0.9,0.12,1.51-0.03,1.51-0.03
				s-0.04-2.7,0.27-2.29c0.31,0.4,1.34,1.86,1.34,1.86c0.3-2.82-0.92-8.35-0.92-8.35c3.2-0.96,8.35-6.4,8.35-6.4
				c4.41-0.31,6.84-1.97,6.84-1.97c7.26-0.54,8.67,1.23,8.67,1.23l-1.3,0.06l1.6,1.13c-1.08-0.32-1.29,0.14-1.29,0.14
				c-2.75,1.17-8.01,8.72-8.01,8.72l-1.23-0.13l1.23,0.91c-2.55,1.33-4.05,4.36-4.05,4.36l-1.7-0.42l1.24,1
				c-1.23,2.31-1.81,6.47-1.81,6.47l-0.96,0.02l-1.04-0.76l0.19,0.94c-1.46,0.16-2.69,1.69-2.69,1.69l-0.19,1.41
				C330.08,110.91,327.93,111.72,326.31,111.86z"/>
			<polygon class="st11" points="324.48,102.07 322.9,100.38 322.6,101.4 			"/>
			<polygon class="st11" points="325.98,101.9 327.15,99.91 327.67,100.84 			"/>
		</g>
		<path class="st12" d="M237.33,182.15c0,0,1.63-3.01,11.7-8.3c0,0,0.77-0.53,2.07-0.16c1.29,0.37,6.1,2.11,10.06,4.62
			c0,0,0.37-1.18,1.18-1.18c0,0-0.83-0.21,0.06-2.76c0,0,1.64,0.28,2.23,1.84c0,0,0.7-0.52,1.63-0.41c0,0-0.44-1.18,1.07-2.66
			c0,0,1.66,0.41,2.18,2.55c0,0,1.04,0.18,1.18,0.74c0,0,1.7-1,2.81-2.4c1.11-1.41,2.09-2.84,3.02-3.28
			c0.92-0.44,4.25-2.77,4.73-3.11c0.48-0.33,6.47-0.18,10.36,2.81c0,0-5.87,2.43-5.53,4.87c0,0-3.22-2.15-5.99-0.7
			c-2.77,1.44-1.78,3.99-1.78,3.99s-4.25-1.33-6.21,2.29c-1.96,3.62-0.04,6.07-0.04,6.07s-4.96-2.55-6.88,2.11
			c0,0-0.48-4.36-4.14-4.62c-3.66-0.26-6.4,3.18-6.4,3.18s-5.14-6.99-9.03-2.15C245.62,185.49,242.69,179.25,237.33,182.15z"/>
		<path class="st12" d="M469.62,208.37c0.02-0.57-0.15-1.51-1.16-2.64c0,0-1.98,0.35-2.76,2.82c0,0-1.23,0.14-1.45,0.78
			c0,0-1.92-1.3-3.11-3.04c-1.19-1.73-2.24-3.49-3.29-4.08c-1.05-0.59-4.77-3.58-5.31-4.01c-0.54-0.43-7.58-0.72-12.36,2.5
			c0,0,6.69,3.3,6.11,6.14c0,0,3.94-2.27,7.08-0.36c3.14,1.91,1.77,4.82,1.77,4.82s5.09-1.23,7.11,3.17
			c2.02,4.4-0.43,7.12-0.43,7.12s2.1-0.91,4.21-0.5c2.02,0.74,3.34,2.62,3.34,2.62s-0.67-3.59,3.34-6.3
			c4.01-2.71,7.72,0.99,7.72,0.99s0.35-3.2,4.02-3.19c3.67,0.01,5.86,3.99,5.86,3.99c0.98-2.72,8.41-2.06,8.41-2.06
			c-2.42-5.23-8.58-8.65-9.26-8.56c-0.68,0.09-5.42,0.7-6.62,0.66c-1.2-0.04-3.01,0.91-4.93,1.77c-1.92,0.86-4.24,0.97-4.24,0.97
			c0.15-0.66-0.83-1.41-0.83-1.41c0.63-2.52-0.88-3.85-0.88-3.85C470.53,207.16,469.89,207.87,469.62,208.37z"/>
		<path class="st12" d="M398.98,137.17c0.02-0.41-0.11-1.1-0.85-1.92c0,0-1.45,0.25-2.01,2.06c0,0-0.9,0.1-1.06,0.57
			c0,0-1.4-0.95-2.27-2.22c-0.87-1.27-1.63-2.55-2.4-2.98c-0.77-0.43-3.48-2.61-3.88-2.93c-0.39-0.31-5.53-0.52-9.02,1.82
			c0,0,4.88,2.41,4.46,4.48c0,0,2.88-1.65,5.17-0.26c2.29,1.39,1.29,3.52,1.29,3.52s3.72-0.9,5.19,2.31
			c1.47,3.21-0.31,5.19-0.31,5.19s1.53-0.67,3.07-0.36c1.47,0.54,2.44,1.91,2.44,1.91s-0.49-2.62,2.44-4.6
			c2.93-1.98,5.64,0.72,5.64,0.72s0.25-2.34,2.94-2.33c2.68,0.01,4.28,2.91,4.28,2.91c0.72-1.99,6.14-1.51,6.14-1.51
			c-1.76-3.82-6.26-6.31-6.76-6.25c-0.5,0.06-3.95,0.51-4.83,0.48c-0.88-0.03-2.2,0.67-3.6,1.29c-1.4,0.63-3.09,0.71-3.09,0.71
			c0.11-0.48-0.61-1.03-0.61-1.03c0.46-1.84-0.65-2.81-0.65-2.81C399.65,136.29,399.19,136.81,398.98,137.17z"/>
		<path class="st12" d="M423.04,97.11c0,0,5.19,2.51,9.43-0.61c0,0,1.33,3.66,4.47,2.35c3.15-1.31,1.49-3.43,1.49-3.43
			s-2.37,0.96-1.03-3.08c0,0,0.88,1.06,2.33,1.52c0,0,0.6-0.71,1.45-0.6c0,0-0.04-1.87,0.85-2.44c0,0,1.94,0.32,1.87,2.33
			c0,0,1.13,2.44,2.72,2.02c1.59-0.42,1.38-4.6,1.03-5.69c0,0,5.41,0.67,9.12-3.93c0,0-2.02,4.07,0.85,7c0,0-4.84,2.23-2.83,5.69
			c0,0-5.2,0.07-4.17,4.24c0,0-5.3-0.53-3.89,6.65c0,0-4.1-6.26-7.71-2.79c0,0-2.55-3.5-4.95-0.21c0,0-2.12-4.99-6.93-1.77
			C427.15,104.37,425.12,98.8,423.04,97.11z"/>
	</g>
	<g>
		<g class="st8">
			<path class="st13" d="M82.24,169.53c-0.27-1.62,3.74,9.29,11.88,1.98c0,0,0.2-6.65,8.15-8.5l-2.63-0.97
				c0,0,14.85,4.21,11.22-12.72c0,0-0.7-1.07-0.91-3.3c0,0-9.87-18.09,11.29-28.47l-4.49,0.9c0,0,5.88-5.68,14.4-3.62l-3.34-2.3
				c0,0,21.71-6.45,25.55,14.31c0,0,2.03,7.39,0.11,9.51c0,0,9,34.64-39.02,38.36c0,0-5.61,5.43-12.96,0.85
				c0,0-9.24,5.18-14.54,1.25C84.08,174.69,82.58,171.55,82.24,169.53z"/>
			<g>
				<path d="M132.51,132.23c0.45,3.78-1.13,7.09-3.53,7.37c-2.4,0.29-4.72-2.55-5.17-6.33c-0.45-3.78,1.13-7.09,3.53-7.37
					C129.74,125.61,132.06,128.44,132.51,132.23z"/>
				<path class="st13" d="M129.98,129.86c0.19,0.7-0.17,1.41-0.81,1.59s-1.32-0.25-1.51-0.95c-0.19-0.7,0.17-1.41,0.81-1.59
					C129.11,128.74,129.79,129.16,129.98,129.86z"/>
			</g>
			<g>
				<path d="M145.65,127.93c0.45,3.78-1.13,7.09-3.53,7.37c-2.4,0.29-4.72-2.55-5.17-6.33c-0.45-3.78,1.13-7.09,3.53-7.37
					C142.88,121.32,145.2,124.15,145.65,127.93z"/>
				<path class="st13" d="M143.12,125.57c0.19,0.7-0.17,1.41-0.81,1.59c-0.64,0.18-1.32-0.25-1.51-0.95
					c-0.19-0.7,0.17-1.41,0.81-1.59S142.93,124.87,143.12,125.57z"/>
			</g>
		</g>
		<g class="st8">
			<path class="st13" d="M536.48,252.57c0,0,6.32-0.47,10.43,6.31c5.15,8.5,12.24,15.46,30.78,13.39
				c15.82-1.76,8.24-14.68,28.34-11.59c14.44,2.22,10.82-14.17,6.57-19.45c-2.78-3.46-8.63-13.39,1.42-22.15
				c9.89-8.62,4.89-22.8-6.31-26.79c-11.21-3.99-24.34,4.64-26.27,14.43c-1.93,9.79,1.87,9.66,1.42,19.58
				c-0.26,5.67-6.83,3.61-11.08,5.8c-4.01,2.06-5.15,5.41-1.67,14.17c3.48,8.76-10.45,18.39-17.9,7.6
				c-6.31-9.15-16.23-4.25-16.23-4.25S531.84,252.31,536.48,252.57z"/>
			<g>
				<path d="M598.6,204.7c-0.83,2.85-3.07,4.75-5,4.26c-1.93-0.5-2.81-3.21-1.98-6.06c0.83-2.85,3.07-4.75,5-4.26
					S599.43,201.86,598.6,204.7z"/>
				<path class="st13" d="M597.4,202.27c-0.07,0.56-0.57,0.96-1.12,0.9c-0.55-0.06-0.93-0.56-0.86-1.12
					c0.07-0.56,0.57-0.96,1.12-0.9C597.08,201.21,597.47,201.71,597.4,202.27z"/>
			</g>
			<g>
				<path d="M601.13,206.38c0.83,2.85,3.07,4.75,5,4.26c1.93-0.5,2.81-3.21,1.98-6.06c-0.83-2.85-3.07-4.75-5-4.26
					C601.18,200.82,600.3,203.53,601.13,206.38z"/>
				<path class="st13" d="M602.33,203.95c0.07,0.56,0.57,0.96,1.12,0.9c0.55-0.06,0.93-0.56,0.86-1.12s-0.57-0.96-1.12-0.9
					C602.64,202.88,602.26,203.39,602.33,203.95z"/>
			</g>
		</g>
	</g>
	<g class="st14">
		<g class="st8">
			<path class="st15" d="M360.34,303.97c-3.37,0.71-6.47,5.37-9.73,6.44c-8.39,2.73-19.76,6.65-16.76,15.88
				c1.57,4.83,6.95,8.3,12.16,9.45c4.02,0.89,8.04-0.21,12.08,0.29c9.8,1.21,19.29,1.38,29.13,1.88c2.16,0.11,4.27,0.35,6.38,0.68
				c-6.46,1.27-13.16,1.86-19.62,2.77c-3.52,0.49-1.92,0.23-1.2,0.16c-0.87,0.08-1.75,0.13-2.62,0.17c-1.65,0.09-3.3,0.15-4.95,0.23
				c-4.29,0.22-8.74,0.51-12.91,1.51c-7.48,1.78-13.1,5.94-16.6,11.18c-21.97,0.54-43.76,2.13-66.17,4.02l30.2,0.85
				c-19.16-0.36-38.39,6.03-57.32,8.2c-15.7,1.81-29.5,1.17-43.61,8.3c17.99,8.49,45.11,3.93,65.29,5.8
				c20.7,1.91,41.43,3.05,61.98,6.12c-20.16,10.17-54.63,0.49-72.73,15.27c22.8,11.79,72.93,9.59,99.23,10.25
				c37.41,0.94,119.57-0.19,151-11.99c31.43-11.79-89.85,4.83-107.26-6.23c18.46-5.75,40.39-3.42,59.62-4.16
				c29.04-1.11,61.79-2.3,89.86-9.09c-24.79-7.29-51.92-7.26-76.88-13.7c8.31-1.83,17.03-1.61,25.14-4.71
				c-25.51-9.04-56.05-8.01-84.91-7.83c4.41-1.62,8.52-3.95,11.49-7.3c5.6-6.3,5.46-15.54-0.93-21.45
				c-5.12-4.74-12.52-6.8-19.53-7.98c-6.15-1.03-8.64-3.86-14.77-4.05c2.53-3.16-16.67-5.12-7.87-10.96"/>
		</g>
	</g>
	<g>
		<text transform="matrix(1 0 0 1 127.0032 466.0527)" class="st16 st17 st18">Happy Halloween</text>
	</g>
</g>
</svg>
