<?xml version="1.0" encoding="utf-8"?>
<!-- Generator: Adobe Illustrator 23.0.1, SVG Export Plug-In . SVG Version: 6.00 Build 0)  -->
<svg version="1.1" xmlns="http://www.w3.org/2000/svg" xmlns:xlink="http://www.w3.org/1999/xlink" x="0px" y="0px"
	 viewBox="0 0 750 500" style="enable-background:new 0 0 750 500;" xml:space="preserve">
<style type="text/css">
	.st0{fill:#8E008E;}
	.st1{opacity:0.25;fill:#4E0660;}
	.st2{display:none;fill:#4E0660;}
	.st3{display:none;}
	.st4{display:inline;fill:#171630;}
	.st5{display:inline;fill:#171619;}
	.st6{display:inline;fill:#262262;}
	.st7{display:inline;fill:#269B62;}
	.st8{display:inline;fill:#76E548;}
	.st9{fill:#76E548;}
	.st10{fill:#8EFF68;}
	.st11{opacity:0.75;fill:#8EFF68;}
	.st12{display:none;fill:#630D75;}
	.st13{display:inline;fill:#F1F2F2;}
	.st14{font-family:'Poppins-Regular';}
	.st15{font-size:10.7856px;}
	.st16{display:inline;fill:#8EFF68;}
	.st17{display:inline;fill:#630D75;}
	.st18{display:inline;}
	.st19{fill:#F1F2F2;}
	.st20{display:inline;fill:#64C93F;}
	.st21{display:inline;opacity:0.75;fill:#F1F2F2;}
	.st22{display:inline;opacity:0.5;fill:#F1F2F2;}
	.st23{display:inline;opacity:0.75;fill:#FFFFFF;}
	.st24{display:inline;fill:#C49A6C;}
	.st25{display:inline;fill:#A97C50;}
	.st26{display:inline;fill:#CEA57C;}
	.st27{display:inline;fill:#FFFFFF;}
	.st28{fill:#630D75;}
	.st29{font-family:'Creepster-Regular';}
	.st30{font-size:40.1384px;}
	.st31{font-size:61.7026px;}
	.st32{display:inline;fill:none;}
	.st33{display:inline;opacity:0.58;}
	.st34{font-size:9.8724px;}
	.st35{display:inline;fill:#F15A29;}
	.st36{font-size:12.3405px;}
	.st37{display:inline;fill:#F9F4C5;}
	.st38{display:inline;fill:#F4EAA8;}
	.st39{opacity:0.5;fill:#FFFFFF;}
	.st40{opacity:0.25;fill:#231F20;}
	.st41{fill:none;stroke:#FFFFFF;stroke-miterlimit:10;}
	.st42{display:inline;fill:#575EBC;}
	.st43{display:inline;opacity:0.5;fill:#FFFFFF;}
	.st44{display:inline;opacity:0.25;}
	.st45{display:inline;fill:#3C2415;}
	.st46{display:inline;fill:#EAD986;}
	.st47{display:inline;fill:#2B180E;}
	.st48{display:none;fill:#F46A1E;}
	.st49{display:inline;fill:#754C29;}
	.st50{display:inline;fill:#F7941D;}
	.st51{display:inline;fill:#F46A1E;}
	.st52{display:inline;fill:#F9A64B;}
	.st53{display:inline;fill:#603913;}
	.st54{display:inline;fill:#8E4E0E;}
	.st55{display:inline;fill:#8C5E3B;}
	.st56{display:inline;fill:#300456;}
	.st57{display:inline;fill:#EE2A7B;}
	.st58{display:inline;fill:#4A177F;}
	.st59{display:inline;fill:none;stroke:#F7941D;stroke-width:1.186;stroke-miterlimit:10;}
</style>
<g id="BACKGROUND">
	<rect class="st0" width="750" height="500"/>
</g>
<g id="OBJECTS">
	<g>
		<path class="st1" d="M548.62,500H0V389.38c14.71-9.19,35.98-11.57,51.14-9.06c23.67,3.9,44.64,17.27,63.85,31.64
			c19.21,14.36,37.68,30.18,59.43,40.31c10.33,4.82,21.56,8.32,32.95,7.83c23.63-1.01,43.47-18.62,66.72-23.01
			c17.37-3.28,36.09,1.44,49.83,12.56c6.94,5.61,12.67,12.75,20.27,17.42c11.82,7.28,26.82,7.64,40.34,4.45
			c13.51-3.19,26-9.59,38.67-15.26c4.14-1.86,8.59-3.68,13.07-3.01c4.74,0.7,8.59,4.01,12.33,7.01
			c20.45,16.4,45.61,26.85,71.66,29.75c5.84,0.66,11.83,0.96,17.29,3.12C541.57,494.72,545.16,497.24,548.62,500z"/>
		<path class="st1" d="M376.72,0c-1.39,10.31-2.78,20.64-5.4,30.65c-8.8,33.55-32.24,62.97-62.96,79.05
			c-28.94,15.15-62.39,18.36-94.81,22.34c-32.42,3.98-66,9.48-92.79,28.16c-25.72,17.93-42.09,49.92-34.11,81.18
			c-13.51-13.92-19.26-41.18-18.22-60.65c1.22-22.7,12.55-45.35,31.87-57.34c16.59-10.3,37.11-12.06,54.76-20.43
			c23.82-11.31,41.19-35.23,44.58-61.38c1.8-13.93-0.12-27.86-3.45-41.58H376.72z"/>
		<path class="st1" d="M103.58,0c-4.24,12.01-10.52,23.3-18.59,33.16c-10.4,12.72-23.53,22.98-33.91,35.7
			c-29.5,36.12-32.23,91.66-6.42,130.5c6.72,10.12,27.25,28.26,23.24,40.87c-13.42-10.88-25.42-22.73-40.5-31.7
			c-9.04-5.37-18.65-10.07-27.4-15.84V0H103.58z"/>
	</g>
	<ellipse class="st2" cx="160.57" cy="449.94" rx="120.12" ry="14.33"/>
	<g id="Panci" class="st3">
		<path class="st4" d="M251.79,365.49c0,48.89-42.2,88.52-94.26,88.52c-31.82,0-59.95-14.8-77.02-37.47
			c-10.87-14.43-17.25-32.04-17.25-51.05c0-26.13,12.06-49.62,31.24-65.82c-5.85-4.26-9.19-9.18-9.19-14.41h32.34
			c12.11-5.31,67.63-5.31,79.74,0h32.34c0,5.23-3.34,10.15-9.19,14.41C239.73,315.87,251.79,339.36,251.79,365.49z"/>
		<path class="st5" d="M251.79,365.49c0,48.89-42.2,88.52-94.26,88.52c-31.82,0-59.95-14.8-77.02-37.47
			c10.62,5.65,22.49,9.04,34.5,10.06c19.1,1.62,38.47-2.54,55.86-10.59c17.13-7.93,32.74-19.88,42.86-35.81
			c10.11-15.93,14.29-36.05,9.06-54.18c-2.94-10.19-9.35-20.03-19.19-23.99c7.3-3.39,13.31-9.47,16.67-16.78h9.48
			c0,5.23-3.34,10.15-9.19,14.41C239.73,315.87,251.79,339.36,251.79,365.49z"/>
		<ellipse class="st6" cx="157.52" cy="285.25" rx="72.21" ry="16.05"/>
		<path class="st7" d="M224.56,285.25c0,1.73-1.64,3.4-4.62,4.92c-9.78,5-34.04,8.54-62.42,8.54c-28.38,0-52.64-3.54-62.42-8.54
			c-2.98-1.52-4.62-3.18-4.62-4.92c0-7.43,30.01-13.46,67.04-13.46S224.56,277.82,224.56,285.25z"/>
		<ellipse class="st8" cx="157.52" cy="290.17" rx="62.42" ry="8.54"/>
		<path class="st6" d="M77.31,353.06c0.14,4.07,0.83,8.26,3.03,11.69c2.2,3.43,6.21,5.93,10.25,5.4c5.19-0.68,8.51-5.71,11.12-10.25
			c4.89-8.49,9.79-16.99,14.68-25.48c2.75-4.77,5.6-10.17,4.29-15.52c-3.23-13.24-20.03-12.46-27.66-4.72
			C82.89,324.48,76.8,338.52,77.31,353.06z"/>
		<path class="st6" d="M95.15,378.47c-2.19-0.61-4.18,1.48-5.17,3.52c-1.46,2.99-2.07,6.57-0.78,9.64c1.29,3.06,4.86,5.25,8.03,4.25
			c2.32-0.74,3.92-2.92,4.81-5.19c0.95-2.41,1.29-5.14,0.52-7.62c-0.77-2.48-2.77-4.64-5.3-5.22"/>
		<path class="st5" d="M248.34,302.14c-6.92-8.95-19.23-4.56-26.63,1.09c-2.61,1.99-0.04,6.49,2.61,4.47
			c5.06-3.86,14.85-9.2,19.98-2.37c4.86,6.45-4.08,10.77-7.75,14.72c-2.27,2.44,1.39,6.11,3.66,3.66c2.99-3.22,7.24-5.39,9.37-9.37
			C251.71,310.34,251.06,305.67,248.34,302.14z"/>
		<path class="st4" d="M67.32,302.14c6.92-8.95,19.23-4.56,26.63,1.09c2.61,1.99,0.04,6.49-2.61,4.47
			c-5.06-3.86-14.85-9.2-19.98-2.37c-4.86,6.45,4.08,10.77,7.75,14.72c2.27,2.44-1.39,6.11-3.66,3.66
			c-2.99-3.22-7.24-5.39-9.37-9.37C63.94,310.34,64.59,305.67,67.32,302.14z"/>
	</g>
	<g>
		<path class="st9" d="M750,3.31v458.06c-51.63,26.04-100.56-5.44-117.2-25.03c-12.31-14.48-19.97-34.92-37.81-41.48
			c-23.15-8.51-45.8,11.57-68.38,21.51c-19.38,8.53-41.94,9.59-62.04,2.92c-15.76-5.24-41.71-27.76-34-64.12
			c8.03-37.87-14.84-56.03-28.64-61.38c-26.46-10.26-43.09,15.91-58.16,25.82c-16.23,10.67-38.92,4.35-53.57-8.4
			c-14.65-12.76-23.66-30.58-34.38-46.77c-11.33-17.11-25.52-33.22-44.28-41.53c-18.76-8.3-42.82-7.08-57.5,7.25
			c-16.22,15.82-19.18,36.9-16.24,58.52c0.66,4.86-3.13,9.92-8.82,4.96c-2.24-1.96-4.71-7.03-6.07-9.54
			c-4.04-7.45-6.27-16.68-7.66-24.99c-2.85-17.07-1.16-35.03,6.25-50.78c12.31-26.15,41.49-44.49,70.12-40.58
			c15.19,2.08,28.95,9.75,43.33,15.06c14.39,5.32,31.14,8.11,44.57,0.71c21.92-12.08,24.35-44.47,44.67-59.08
			c21.33-15.33,50.74-4.4,74.91,5.89c24.18,10.29,36.27,14.41,54.61-4.39c16.95-17.4,14.36-44.48,25.35-66.12
			c14.61-28.78,30.84-42.4,47.39-46.29c12.8-3.01,23.55-3.11,32.98-1.44c18.96,3.37,32.64,13.86,47.13,22.17
			c9.96,5.71,20.3,10.39,33,11.02c0.7,0.03,1.39,0.05,2.07,0.04c21.43-0.17,38.32-19.44,53.74-34.8c2.43-2.42,4.95-4.85,7.56-7.21
			H750z"/>
		<path class="st10" d="M624.83,95.48c11.04,2.03,18.11,15.8,13.34,25.96c-5.07,10.78-18.82,14.03-30.73,14.22
			c-11.58,0.18-23.53-1.4-33.52-7.26c-9.99-5.86-17.64-16.65-17.28-28.22c0.32-10.3,9.59-20.91,19.63-18.57
			c-38.28-20.24-91.22,0.47-106.04,41.03c-20.94,57.31-58.41,36.37-101.38,20.94c-50.07-17.98-54,52.9-96.98,60.61
			c-42.98,7.72-51.8-22.04-90.37-19.83c-38.57,2.2-59.51,35.26-57.31,70.53c24.25-87.06,91.47-54,121.23-24.25
			c21.03,21.04,62.2,99.6,99.28,59.22c-3.74,2.7-9.33,1.06-12.37-2.4c-3.05-3.46-4.15-8.18-4.96-12.72c-0.44-2.44-0.82-5-0.08-7.36
			c0.88-2.84,3.22-4.96,5.57-6.77c10.19-7.86,27.83-17.37,40.72-11.13c4.85,2.35,9.34,5.92,11.54,10.84
			c3.45,7.73-1.02,15.48-7.1,20.31c6.07-3,9.66-6.07,16.84-5.93c7.19,0.14,17.27-0.24,23.38,4.27c5.36,3.95,10.01,9.41,15.63,13.41
			c41.88,29.76-1.1,93.67,65.02,98.08c36.88,2.46,52.9-40.78,92.57-41.88c39.67-1.1,65.02,45.18,113.51,42.98
			c21.75-0.99,35.96-6.63,45.02-12.56V85.8C714.78,121.14,666.82,103.21,624.83,95.48z M606.56,34.26
			c-14.49-8.31-28.17-18.8-47.13-22.17c-25.72,17.98-42.76,38.6-53.92,57.64C547.03,36.05,579.47,30,606.56,34.26z M702.93,3.31
			c-2.61,2.36-5.13,4.79-7.56,7.21c-15.42,15.36-32.31,34.63-53.74,34.8c21,9.3,38.95,20.43,56.74,20.01
			c20.55-0.49,38.28-4.45,51.63-8.72V3.31H702.93z"/>
		<g>
			<path class="st9" d="M289.77,256.68c3.28,2.12,7.68,2.92,11.09,1.01c2.56-1.43,4.2-4.23,4.59-7.13c0.4-2.9-0.36-5.88-1.73-8.47
				c-3.32-6.27-15.6-14.42-22.06-7.74C275.07,241.16,283.95,252.92,289.77,256.68z"/>
			<path class="st9" d="M535.59,91.94c3.6-0.31,7.77,0.1,9.88,3.02c1.77,2.46,1.39,5.98-0.2,8.56c-1.58,2.58-4.14,4.39-6.72,5.97
				c-5.98,3.67-12.71,6.57-19.73,6.54c-1.51-0.01-3.04-0.16-4.43-0.75c-6.85-2.93-5.8-13.37-0.65-17.32
				C518.83,94.08,529.53,92.46,535.59,91.94z"/>
			<path class="st9" d="M732.39,283.67c1.1,3.67-0.92,7.72-3.97,10.03c-3.05,2.31-6.93,3.22-10.71,3.8
				c-7.54,1.16-15.47,1.23-22.55-1.6c-0.68-0.27-1.38-0.59-1.84-1.16c-0.86-1.08-0.6-2.64-0.23-3.97
				c2.59-9.09,9.2-15.96,19.08-14.79C718.43,276.72,730.11,276.06,732.39,283.67z"/>
			<path class="st9" d="M670.99,274.95c5.89-1.53,14.52,0.59,12.16,7.11c-0.96,2.64-4.22,3.48-7.01,3.77
				c-3.06,0.32-6.63,0.22-8.55-2.19C663.94,279.03,666.76,276.05,670.99,274.95z"/>
			<path class="st9" d="M313.03,189.71c3.81-4.75,12-8.2,14-1.57c0.81,2.69-1.3,5.31-3.37,7.21c-2.26,2.08-5.19,4.14-8.16,3.35
				C309.81,197.2,310.29,193.12,313.03,189.71z"/>
			<path class="st9" d="M506.14,365.24c4.28-2.21,11.31-2.07,10.62,3.37c-0.28,2.2-2.65,3.42-4.75,4.13
				c-2.3,0.78-5.08,1.32-6.98-0.2C501.41,369.62,503.07,366.82,506.14,365.24z"/>
			<path class="st9" d="M503.36,123.38c5.89-1.53,14.52,0.59,12.16,7.11c-0.96,2.64-4.22,3.48-7.01,3.77
				c-3.06,0.32-6.64,0.22-8.55-2.19C496.31,127.47,499.13,124.48,503.36,123.38z"/>
			<path class="st9" d="M548.78,339.41c1.21-0.17,2.51-0.25,3.59,0.31c1.8,0.92,2.37,3.27,2.12,5.27c-0.45,3.65-2.92,6.81-5.94,8.9
				c-4.26,2.95-20.5,9.85-18.75-0.78C531.09,345.3,542.13,340.36,548.78,339.41z"/>
		</g>
		<path class="st11" d="M750,407.24v35c-30.05,5.97-81.19,6.82-104.53-47.4C645.47,394.84,700.23,438.81,750,407.24z"/>
	</g>
	<rect class="st12" width="750" height="55.72"/>
	<g class="st3">
		<text transform="matrix(1 0 0 1 63.309 32.6011)" class="st13 st14 st15">YOUR LOGO</text>
		<text transform="matrix(1 0 0 1 278.771 32.6011)" class="st13 st14 st15">HOME</text>
		<path class="st16" d="M400.91,41.02h-59.66c-6.81,0-12.33-5.52-12.33-12.33v0c0-6.81,5.52-12.33,12.33-12.33h59.66
			c6.81,0,12.33,5.52,12.33,12.33v0C413.25,35.5,407.72,41.02,400.91,41.02z"/>
		<text transform="matrix(1 0 0 1 344.9321 32.6011)" class="st17 st14 st15">ABOUT US</text>
		<text transform="matrix(1 0 0 1 429.0625 32.6011)" class="st13 st14 st15">GALLERY</text>
		<text transform="matrix(1 0 0 1 500.417 32.6011)" class="st13 st14 st15">PRODUCTS</text>
		<text transform="matrix(1 0 0 1 582.498 32.6011)" class="st13 st14 st15">SUPPORTS</text>
		<g class="st18">
			<rect x="695.69" y="24.67" class="st19" width="17.17" height="1.63"/>
			<rect x="695.69" y="27.89" class="st19" width="17.17" height="1.63"/>
			<rect x="695.69" y="30.94" class="st19" width="17.17" height="1.63"/>
		</g>
		<circle class="st16" cx="40.22" cy="25.68" r="11.58"/>
	</g>
	<g class="st3">
		<path class="st16" d="M42.92,116.5c-1.52,0.23-3.12,0.51-4.31,1.49c-1.19,0.98-1.72,2.92-0.71,4.08c0.5,0.57,1.25,0.85,1.97,1.09
			c13.1,4.42,26.81,7.01,40.62,7.68c1.81,0.09,3.67,0.13,5.35-0.55c1.71-0.69,3.04-2.05,4.56-3.08c3.7-2.5,8.41-2.95,12.87-2.79
			c3.92,0.14,7.9,0.71,11.42,2.44c3.52,1.73,6.54,4.76,7.57,8.54c1.05,3.85-0.03,7.9-0.25,11.88c-0.22,3.98,0.88,8.63,4.5,10.3
			c0.86,0.4,1.85,0.59,2.77,0.34c0.62-0.17,1.17-0.54,1.64-0.96c2.11-1.9,2.79-4.99,2.45-7.8c-0.34-2.81-1.56-5.43-2.77-8
			c-1.64-3.48-3.28-6.97-4.92-10.45c-1.47-3.11-3-6.32-5.61-8.57c-9.07-7.83-22.97-8.21-34.17-8.43
			C71.53,113.43,57.13,114.36,42.92,116.5z"/>
		<path class="st20" d="M113.6,119.6c0.04,1.02-1.28,1.46-2.31,1.51c-5.99,0.3-12.02-1.63-17.95-0.68
			c-3.48,0.56-6.75,2.09-10.23,2.6c-4.52,0.66-9.09-0.43-13.61-1.17c-6.7-1.09-13.53-1.4-20.3-0.92c-1.1,0.08-2.24,0.17-3.28-0.2
			c-1.04-0.38-1.94-1.37-1.82-2.47c12.22-1.52,24.52-2.33,36.83-2.45c6.1-0.06,12.19,0.06,18.28,0.35
			C100.89,116.24,113.5,116.78,113.6,119.6z"/>
		<path class="st21" d="M117.76,137.36c-1.95,0.99-4.73,0.56-5.73-1.38c-0.88-1.72-0.18-4.03-1.36-5.56
			c-0.76-0.99-2.08-1.33-3.29-1.61c-1.62-0.37-3.23-0.75-4.85-1.12c-2.07-0.48-4.24-0.96-6.29-0.42c-3.7,0.97-5.92,4.9-9.47,6.31
			c-2.46,0.98-5.22,0.62-7.84,0.23c-12.49-1.84-24.93-4.01-37.3-6.51c-2.3-0.47-4.74-1.01-6.41-2.66
			c-2.75-2.72-2.35-7.19-1.74-11.01c0.7-4.42,1.4-8.84,2.09-13.27c0.54-3.42,1.27-7.18,4-9.31c1.86-1.44,5.99-2.99,8.33-2.45
			c10.93,2.52,21.27,3.34,32.21,5.86c2.94,0.68,9.05,1.89,11.73,3.28c4.67,2.43,3.95,8.81,8.35,11.59c2.3,1.45,5.03,2,7.7,2.52
			c1.17,0.23,2.41,0.45,3.53,0.03c2.22-0.85,2.85-3.74,4.69-5.25c2.04-1.66,5.3-1.15,7.18,0.7c4.25,4.18,1.53,10.63,0.82,15.62
			C123.45,127.66,122.55,134.92,117.76,137.36z"/>
		<path class="st17" d="M82.8,98.59l-28.82-5.05c0,0-6.02,11.93-5.87,31.33c18.41,3.28,28.57,5.38,28.57,5.38L82.8,98.59z"/>
		<path class="st22" d="M119.58,109.04c0.66-0.08,1.33-0.16,1.99-0.23c0.66,1.22,1.25,2.58,1.01,3.95
			c-0.24,1.36-1.66,2.59-2.97,2.13c-0.61-0.9-1.23-1.83-1.48-2.88c-0.25-1.06-0.07-2.29,0.74-3.02"/>
		<path class="st22" d="M89.14,100.92c2.46,1.55,4.12,4.3,4.36,7.2c0.04,0.48,0.02,1.03-0.33,1.37c-0.24,0.23-0.59,0.31-0.92,0.32
			c-2.31,0.09-3.8-2.28-5.34-4.01c-1.31-1.47-2.98-2.63-4.82-3.34c-0.6-0.23-1.23-0.43-1.73-0.84c-0.5-0.41-0.82-1.11-0.58-1.71
			c0.31-0.76,1.3-0.92,2.12-0.91c2.39,0.02,4.77,0.58,6.92,1.62"/>
		<path class="st23" d="M128.88,142.28c0.75-0.3,1.4,0.6,1.71,1.34c0.83,1.97,1.68,4.04,1.46,6.17c-0.11,1.03-0.98,2.28-1.92,1.83
			c-0.43-0.2-0.64-0.69-0.8-1.13c-0.69-1.94-1.12-3.97-1.28-6.03c-0.06-0.78,0.14-1.82,0.92-1.88"/>
		<path class="st24" d="M141.65,124.4c2.44,0.76,20.07-6.89,23.15-8.44c2.9-1.45,4.09-3.87,2.73-7.52
			c-0.07-0.22-0.17-0.45-0.27-0.68c-4.18-9.53-8.74-12.91-11.9-12.2c-3.15,0.71-18.8,13.07-19.99,15.42
			c-0.1,0.19-0.15,0.45-0.18,0.74C135.01,114.99,139.4,123.7,141.65,124.4z"/>
		<path class="st25" d="M141.65,124.4c2.44,0.76,20.07-6.89,23.15-8.44c2.9-1.45,4.09-3.87,2.73-7.52c-0.22,0.26-0.46,0.5-0.7,0.74
			c-4.92,4.85-11.94,7.49-18.84,7.08c-4.57-0.28-9.04-1.89-12.8-4.53C135.01,114.99,139.4,123.7,141.65,124.4z"/>
		<path class="st26" d="M162.51,107.43c0.01,0.6-0.15,1.36-0.73,1.48c-0.48,0.1-0.89-0.31-1.21-0.68c-0.94-1.1-1.88-2.2-2.82-3.3
			c-0.62-0.73-1.48-1.54-2.41-1.28c-0.34,0.1-0.62,0.33-0.9,0.54c-1.33,0.99-2.93,1.61-4.57,1.78c0.29-0.74-0.27-1.69-1.06-1.78
			c-0.22-0.02-0.45,0-0.64-0.09c-0.33-0.16-0.41-0.62-0.27-0.96c0.14-0.34,0.44-0.58,0.73-0.81c2.02-1.55,6.14-5.07,8.94-4.22
			C160.8,99.09,162.45,104.51,162.51,107.43z"/>
		<path class="st27" d="M69.87,116.76c0.08,0.28,0.17,0.59,0.43,0.72c0.3,0.15,0.64-0.01,0.95-0.13c2.01-0.75,4.52,0.95,4.57,3.1
			c0.03,1.29-0.92,2.66-2.21,2.68c-1.11,0.02-2.19-0.9-3.23-0.52c-0.94,0.35-1.24,1.55-2.05,2.14c-1.11,0.82-2.83,0.1-3.41-1.15
			c-0.58-1.25-0.25-2.74,0.41-3.95c0.29-0.53,0.65-1.07,0.67-1.67c0.02-0.54-0.22-1.06-0.46-1.54c-1.06-2.17-2.13-4.33-3.19-6.5
			c-0.82-1.68-1.75-3.46-3.4-4.33c-1.21-0.63-2.67-0.69-3.82-1.42c-1.15-0.73-1.67-2.71-0.46-3.34c0.63-0.32,1.42-0.11,2.07-0.39
			c0.56-0.25,0.9-0.82,1.22-1.34c0.62-1.01,1.38-2.02,2.48-2.47c1.1-0.45,2.6-0.1,3.04,1c0.6,1.49-1.07,2.45-0.93,3.84
			c0.14,1.37,2.19,3.39,2.88,4.61C67.35,109.45,68.84,113.04,69.87,116.76z"/>
		<path class="st27" d="M66.01,107.49c0.99-0.56,2-1.13,2.74-2c0.95-1.12,1.36-2.62,2.33-3.72c0.97-1.1,3.02-1.52,3.76-0.26
			c0.56,0.96-0.01,2.18,0.18,3.27c0.32,1.87,2.79,3.03,2.6,4.92c-0.11,1.14-1.43,2-2.52,1.64c-0.82-0.27-1.37-1.05-2.14-1.43
			c-1.39-0.69-3.04,0.06-4.4,0.79c-1.6,0.86-3.2,1.72-4.8,2.58c-0.67,0.36-1.35,0.73-1.85,1.31c-1.58,1.84-0.74,5.05-2.52,6.69
			c-0.32,0.3-0.74,0.52-1.18,0.47c-1.18-0.14-1.21-1.81-1.61-2.93c-0.52-1.47-2.05-2.27-3.15-3.37c-1.1-1.1-1.67-3.21-0.35-4.04
			c1.47-0.92,3.45,0.98,5.31,0.32C61.02,110.82,63.6,108.85,66.01,107.49z"/>
	</g>
	<g class="st3">
		<text transform="matrix(1 0 0 1 393.9824 214.4463)" class="st18"><tspan x="0" y="0" class="st28 st29 st30"> </tspan><tspan x="8.51" y="0" class="st28 st29 st31">Halloween</tspan></text>
		<text transform="matrix(1 0 0 1 479.8037 158.793)" class="st17 st29 st30">Happy</text>
		<rect x="365.94" y="234.41" class="st32" width="338.59" height="68.91"/>
		<text transform="matrix(1 0 0 1 366.418 241.4175)" class="st33"><tspan x="0" y="0" class="st14 st34">Lorem ipsum dolor sit amet, consectetuer adipiscing elit, sed diam nonummy nibh </tspan><tspan x="1.33" y="11.85" class="st14 st34">euismod tincidunt ut laoreet dolore magna aliquam erat volutpat. Ut wisi enim ad </tspan><tspan x="138.23" y="23.69" class="st14 st34">minim veniam, </tspan></text>
		<path class="st35" d="M585.27,328.25h-99.62c-8.52,0-15.43-6.91-15.43-15.43v-7.22c0-8.52,6.91-15.43,15.43-15.43h99.62
			c8.52,0,15.43,6.91,15.43,15.43v7.22C600.7,321.34,593.79,328.25,585.27,328.25z"/>
		<text transform="matrix(1 0 0 1 504.3447 312.498)" class="st27 st14 st36">READ MORE</text>
	</g>
	<g class="st3">
		<path class="st37" d="M258.17,147.28c-1.03,1.26-2.73,1.75-4.34,1.96c-6.87,0.9-13.9-1.97-20.7-0.62
			c-3.38,0.68-6.47,2.35-9.49,4.02c-11.27,6.17-23.54,13.55-27.16,25.88c-1.24,4.21-2.15,9.68-6.41,10.73
			c-2.56,0.63-5.3-0.92-6.7-3.17c-1.39-2.24-1.66-5.01-1.49-7.65c0.14-2.18,0.52-4.47-0.39-6.45c-2.72-5.88-13.13-3.13-16.67-8.55
			c-0.99-1.51-1.12-3.31-0.64-5.01c0.63-2.26,2.32-4.37,4.44-5.47c3.72-1.93,8.19-1.56,12.33-0.9c4.14,0.66,8.4,1.56,12.47,0.55
			c2.67-0.67,5.07-2.12,7.43-3.55c6.18-3.76,12.41-7.45,18.55-11.29c6.75-4.21,4.77-9.79,8.63-16.19c2.49-4.13,9.21-6.31,11.91-2.31
			c2.42,3.58-0.52,8.7,1.19,12.66c1.17,2.69,4.15,4.08,6.98,4.85c1.99,0.53,4.09,0.91,5.99,1.69c0.79,0.32,1.55,0.72,2.24,1.22
			C258.68,141.39,260.02,145.02,258.17,147.28z"/>
		<path class="st38" d="M258.17,147.28c-1.03,1.26-2.73,1.75-4.34,1.96c-6.87,0.9-13.9-1.97-20.7-0.62
			c-3.38,0.68-6.47,2.35-9.49,4.02c-11.27,6.17-23.54,13.55-27.16,25.88c-1.24,4.21-2.15,9.68-6.41,10.73
			c-2.56,0.63-5.3-0.92-6.7-3.17c-1.39-2.24-1.66-5.01-1.49-7.65c0.14-2.18,0.52-4.47-0.39-6.45c-2.72-5.88-13.13-3.13-16.67-8.55
			c-0.99-1.51-1.12-3.31-0.64-5.01c0.46,0.68,1.05,1.34,1.85,1.92c2.63,1.88,6.13,1.79,9.35,1.58c3.21-0.22,6.68-0.42,9.41,1.29
			c0.76,1.79,0.03,3.81-0.27,5.73c-0.3,1.92,0.18,4.38,2.05,4.9c2.27,0.62,3.91-2.02,5.03-4.08c4.72-8.65,14.03-13.6,22.82-18.05
			c7.75-3.93,15.76-7.94,24.43-8.69c5.15-0.44,11.13-0.01,14.6-3.83c0.22-0.25,0.43-0.5,0.63-0.77c0.79,0.32,1.55,0.72,2.24,1.22
			C258.68,141.39,260.02,145.02,258.17,147.28z"/>
		<path class="st27" d="M229.72,129.05c0.06,0.49,0.17,1.02,0.55,1.33c0.7,0.57,1.75,0.04,2.43-0.55c1.92-1.66,6.9-7.76,2.7-9.75
			C231.11,118.04,229.42,126.39,229.72,129.05z"/>
		<path class="st27" d="M170.72,155.91c-0.37,0.29-0.73,0.65-0.79,1.12c-0.06,0.56,0.37,1.07,0.89,1.29
			c0.51,0.22,1.09,0.21,1.65,0.2c1.68-0.04,3.35-0.08,5.03-0.12c2.74-0.07,6.94-2.28,2.82-4.15
			C177.37,152.91,173.14,153.98,170.72,155.91z"/>
	</g>
	<g>
		<g>
			<path class="st10" d="M188.17,247.78c0,5.16-4.19,9.35-9.35,9.35c-4.49,0-8.24-3.17-9.14-7.39c-0.14-0.63-0.21-1.29-0.21-1.96
				c0-5.16,4.19-9.35,9.35-9.35c4.26,0,7.86,2.86,8.98,6.76C188.04,246.01,188.17,246.88,188.17,247.78z"/>
			<path class="st39" d="M172.22,245.25c0,0.67,0.25,1.44,0.88,1.64c0.42,0.13,0.87-0.04,1.28-0.22c0.84-0.38,1.67-0.8,2.47-1.27
				c0.45-0.26,0.91-0.56,1.19-1c0.2-0.32,0.3-0.69,0.34-1.06c0.2-1.98-1.47-3.21-3.2-2.38C173.55,241.74,172.22,243.4,172.22,245.25
				z"/>
			<path class="st40" d="M188.17,247.78c0,5.16-4.19,9.35-9.35,9.35c-4.49,0-8.24-3.17-9.14-7.39c0.9,0.59,1.77,1.3,2.74,1.69
				c1.73,0.7,3.62,1.01,5.47,0.85c4.25-0.38,8.18-3.2,9.91-7.09C188.04,246.01,188.17,246.88,188.17,247.78z"/>
		</g>
		<g>
			<path class="st10" d="M156.16,268.59c0,3.45-2.8,6.24-6.24,6.24c-3,0-5.5-2.12-6.1-4.94c-0.09-0.42-0.14-0.86-0.14-1.31
				c0-3.45,2.8-6.24,6.24-6.24c2.85,0,5.25,1.91,6,4.51C156.08,267.41,156.16,267.99,156.16,268.59z"/>
			<path class="st39" d="M145.51,266.9c0,0.44,0.17,0.96,0.59,1.09c0.28,0.09,0.58-0.03,0.85-0.15c0.56-0.25,1.11-0.53,1.65-0.84
				c0.3-0.18,0.61-0.37,0.8-0.67c0.14-0.21,0.2-0.46,0.23-0.71c0.14-1.32-0.98-2.15-2.14-1.59
				C146.4,264.56,145.51,265.67,145.51,266.9z"/>
			<path class="st40" d="M156.16,268.59c0,3.45-2.8,6.24-6.24,6.24c-3,0-5.5-2.12-6.1-4.94c0.6,0.39,1.18,0.87,1.83,1.13
				c1.16,0.47,2.42,0.67,3.65,0.57c2.84-0.25,5.46-2.14,6.62-4.74C156.08,267.41,156.16,267.99,156.16,268.59z"/>
		</g>
		<g>
			<path class="st10" d="M209.8,273.98c0,3.45-2.8,6.24-6.24,6.24c-3,0-5.5-2.12-6.1-4.94c-0.09-0.42-0.14-0.86-0.14-1.31
				c0-3.45,2.8-6.24,6.24-6.24c2.85,0,5.25,1.91,6,4.51C209.71,272.8,209.8,273.38,209.8,273.98z"/>
			<path class="st39" d="M199.14,272.29c0,0.44,0.17,0.96,0.59,1.09c0.28,0.09,0.58-0.03,0.85-0.15c0.56-0.25,1.11-0.53,1.65-0.85
				c0.3-0.18,0.61-0.37,0.8-0.66c0.14-0.21,0.2-0.46,0.23-0.71c0.14-1.32-0.98-2.15-2.14-1.59
				C200.03,269.95,199.15,271.06,199.14,272.29z"/>
			<path class="st40" d="M209.8,273.98c0,3.45-2.8,6.24-6.24,6.24c-3,0-5.5-2.12-6.1-4.94c0.6,0.39,1.18,0.87,1.83,1.13
				c1.16,0.47,2.42,0.67,3.65,0.57c2.84-0.25,5.46-2.14,6.62-4.74C209.71,272.8,209.8,273.38,209.8,273.98z"/>
		</g>
		<g>
			<path class="st10" d="M98.12,226.96c0,3.18-2.58,5.75-5.75,5.75c-2.76,0-5.07-1.95-5.63-4.55c-0.09-0.39-0.13-0.79-0.13-1.21
				c0-3.18,2.58-5.75,5.75-5.75c2.62,0,4.84,1.76,5.53,4.16C98.04,225.87,98.12,226.4,98.12,226.96z"/>
			<path class="st39" d="M88.31,225.4c0,0.41,0.15,0.89,0.54,1.01c0.26,0.08,0.54-0.03,0.79-0.14c0.52-0.23,1.03-0.49,1.52-0.78
				c0.28-0.16,0.56-0.34,0.73-0.61c0.12-0.19,0.18-0.42,0.21-0.65c0.13-1.22-0.9-1.98-1.97-1.46
				C89.13,223.24,88.31,224.27,88.31,225.4z"/>
			<path class="st40" d="M98.12,226.96c0,3.18-2.58,5.75-5.75,5.75c-2.76,0-5.07-1.95-5.63-4.55c0.55,0.36,1.09,0.8,1.69,1.04
				c1.06,0.43,2.23,0.62,3.37,0.52c2.62-0.23,5.03-1.97,6.1-4.36C98.04,225.87,98.12,226.4,98.12,226.96z"/>
		</g>
		<g>
			<path class="st10" d="M110.26,245.37c0,1.96-1.59,3.55-3.55,3.55c-1.71,0-3.13-1.2-3.47-2.81c-0.05-0.24-0.08-0.49-0.08-0.74
				c0-1.96,1.59-3.55,3.55-3.55c1.62,0,2.98,1.09,3.41,2.57C110.21,244.7,110.26,245.03,110.26,245.37z"/>
			<path class="st39" d="M104.2,244.41c0,0.25,0.09,0.55,0.34,0.62c0.16,0.05,0.33-0.02,0.49-0.08c0.32-0.14,0.63-0.3,0.94-0.48
				c0.17-0.1,0.35-0.21,0.45-0.38c0.08-0.12,0.11-0.26,0.13-0.4c0.08-0.75-0.56-1.22-1.22-0.9
				C104.71,243.08,104.2,243.71,104.2,244.41z"/>
			<path class="st40" d="M110.26,245.37c0,1.96-1.59,3.55-3.55,3.55c-1.71,0-3.13-1.2-3.47-2.81c0.34,0.22,0.67,0.49,1.04,0.64
				c0.66,0.27,1.37,0.38,2.08,0.32c1.61-0.14,3.11-1.22,3.76-2.69C110.21,244.7,110.26,245.03,110.26,245.37z"/>
		</g>
		<g>
			<path class="st10" d="M172.57,217.65c0,1.96-1.59,3.55-3.55,3.55c-1.71,0-3.13-1.2-3.47-2.81c-0.05-0.24-0.08-0.49-0.08-0.74
				c0-1.96,1.59-3.55,3.55-3.55c1.62,0,2.98,1.09,3.41,2.57C172.52,216.98,172.57,217.31,172.57,217.65z"/>
			<path class="st39" d="M166.51,216.69c0,0.25,0.09,0.55,0.34,0.62c0.16,0.05,0.33-0.02,0.49-0.08c0.32-0.14,0.63-0.3,0.94-0.48
				c0.17-0.1,0.35-0.21,0.45-0.38c0.08-0.12,0.11-0.26,0.13-0.4c0.08-0.75-0.56-1.22-1.22-0.9
				C167.02,215.36,166.52,215.99,166.51,216.69z"/>
			<path class="st40" d="M172.57,217.65c0,1.96-1.59,3.55-3.55,3.55c-1.71,0-3.13-1.2-3.47-2.81c0.34,0.22,0.67,0.49,1.04,0.64
				c0.66,0.27,1.37,0.38,2.08,0.32c1.61-0.14,3.11-1.22,3.76-2.69C172.52,216.98,172.57,217.31,172.57,217.65z"/>
		</g>
		<g>
			<path class="st10" d="M203.43,235.53c0,1.96-1.59,3.55-3.55,3.55c-1.71,0-3.13-1.2-3.47-2.81c-0.05-0.24-0.08-0.49-0.08-0.74
				c0-1.96,1.59-3.55,3.55-3.55c1.62,0,2.98,1.09,3.41,2.57C203.38,234.86,203.43,235.19,203.43,235.53z"/>
			<path class="st39" d="M197.37,234.57c0,0.25,0.09,0.55,0.34,0.62c0.16,0.05,0.33-0.02,0.49-0.08c0.32-0.14,0.63-0.3,0.94-0.48
				c0.17-0.1,0.35-0.21,0.45-0.38c0.08-0.12,0.11-0.26,0.13-0.4c0.08-0.75-0.56-1.22-1.22-0.9
				C197.88,233.24,197.37,233.87,197.37,234.57z"/>
			<path class="st40" d="M203.43,235.53c0,1.96-1.59,3.55-3.55,3.55c-1.71,0-3.13-1.2-3.47-2.81c0.34,0.22,0.67,0.49,1.04,0.64
				c0.66,0.27,1.37,0.38,2.08,0.32c1.61-0.14,3.11-1.22,3.76-2.69C203.38,234.86,203.43,235.19,203.43,235.53z"/>
		</g>
		<g>
			<path class="st10" d="M157.93,247.09c0.27-0.23,0.58-0.45,0.93-0.43c0.09,0.15,0,0.35-0.09,0.5c-0.99,1.73-1.97,3.46-2.96,5.18
				c-0.3,0.52-0.88,0.82-1.1,0.17c-0.09-0.27,0.49-1.32,0.6-1.58C155.91,249.45,156.71,248.14,157.93,247.09z"/>
			<path class="st10" d="M158.81,253.35c1.29-0.7,2.62-1.32,3.99-1.86c0.52-0.2,1.11-0.4,1.63-0.19c-0.1,0.44-0.59,0.66-1.01,0.82
				c-1.53,0.6-3.01,1.33-4.4,2.21c-0.19,0.12-0.4,0.25-0.63,0.27C157.15,254.69,158.49,253.53,158.81,253.35z"/>
			<path class="st10" d="M151.85,247.77c-0.24-0.77-0.57-1.65-1.34-1.9c-0.2,0.33-0.04,0.75,0.1,1.11c0.4,1.04,0.63,2.14,0.67,3.25
				c0.01,0.39,0.01,0.81,0.21,1.15c0.67,1.13,1.03-0.1,1.01-0.73C152.48,249.68,152.13,248.69,151.85,247.77z"/>
			<path class="st10" d="M145.59,251.22c-0.21-0.07-0.48-0.12-0.62,0.05c-0.2,0.24,0.11,0.57,0.37,0.74
				c0.65,0.39,4.4,2.94,4.77,2.06C150.64,252.77,146.33,251.46,145.59,251.22z"/>
			<path class="st10" d="M163.92,260c-0.06,0.32-0.38,0.55-0.71,0.6c-0.32,0.05-0.66-0.03-0.97-0.11c-0.75-0.21-6.06-1.91-4.88-2.93
				C158.54,256.55,162.9,259.39,163.92,260z"/>
		</g>
		<g>
			<path class="st10" d="M219.86,253.26c0.07-0.17,0.16-0.35,0.33-0.42c0.08,0.05,0.08,0.16,0.08,0.25
				c-0.06,1.04-0.11,2.08-0.17,3.11c-0.02,0.31-0.22,0.59-0.48,0.34c-0.11-0.1-0.08-0.73-0.09-0.88
				C219.47,254.83,219.54,254.04,219.86,253.26z"/>
			<path class="st10" d="M221.74,255.98c0.44-0.63,0.91-1.23,1.43-1.8c0.2-0.22,0.42-0.44,0.72-0.47c0.06,0.23-0.12,0.44-0.28,0.62
				c-0.58,0.64-1.09,1.33-1.54,2.06c-0.06,0.1-0.13,0.21-0.23,0.27C221.28,256.99,221.63,256.13,221.74,255.98z"/>
			<path class="st10" d="M217.18,255c-0.29-0.31-0.65-0.64-1.07-0.57c-0.02,0.2,0.16,0.36,0.31,0.49c0.43,0.39,0.8,0.85,1.08,1.36
				c0.1,0.18,0.2,0.37,0.37,0.49c0.58,0.37,0.46-0.29,0.3-0.58C217.93,255.75,217.53,255.36,217.18,255z"/>
			<path class="st10" d="M220.09,263.62c0.07,0.17,0.17,0.34,0.34,0.41c0.08-0.05,0.08-0.16,0.07-0.26
				c-0.08-1.04-0.16-2.07-0.24-3.11c-0.02-0.31-0.23-0.58-0.48-0.33c-0.11,0.11-0.06,0.73-0.07,0.88
				C219.66,262.06,219.74,262.86,220.09,263.62z"/>
			<path class="st10" d="M221.9,260.86c0.45,0.62,0.94,1.21,1.47,1.77c0.2,0.21,0.44,0.43,0.73,0.45c0.05-0.23-0.13-0.44-0.29-0.61
				c-0.59-0.62-1.12-1.3-1.59-2.02c-0.06-0.1-0.13-0.21-0.24-0.27C221.41,259.86,221.79,260.71,221.9,260.86z"/>
			<path class="st10" d="M217.37,261.95c-0.28,0.31-0.64,0.65-1.06,0.6c-0.02-0.2,0.15-0.36,0.29-0.5c0.42-0.4,0.78-0.87,1.04-1.39
				c0.09-0.18,0.19-0.38,0.36-0.49c0.57-0.38,0.46,0.28,0.32,0.57C218.09,261.18,217.7,261.57,217.37,261.95z"/>
			<path class="st10" d="M215.07,258.08c-0.11,0.02-0.25,0.06-0.28,0.17c-0.03,0.16,0.18,0.24,0.35,0.26
				c0.39,0.03,2.75,0.34,2.71-0.16C217.79,257.62,215.47,258.02,215.07,258.08z"/>
			<path class="st10" d="M225.68,257.88c0.05,0.17-0.05,0.35-0.19,0.45c-0.14,0.1-0.31,0.14-0.48,0.17
				c-0.4,0.08-3.28,0.53-2.96-0.22C222.36,257.53,225.06,257.84,225.68,257.88z"/>
		</g>
		<g>
			<path class="st10" d="M84.3,177.98c0.07-0.17,0.16-0.35,0.33-0.42c0.08,0.05,0.08,0.16,0.08,0.25c-0.06,1.04-0.11,2.08-0.17,3.11
				c-0.02,0.31-0.22,0.59-0.48,0.34c-0.11-0.1-0.08-0.73-0.09-0.88C83.91,179.55,83.97,178.76,84.3,177.98z"/>
			<path class="st10" d="M86.18,180.7c0.44-0.63,0.91-1.23,1.43-1.8c0.2-0.22,0.42-0.44,0.72-0.47c0.06,0.23-0.12,0.44-0.28,0.62
				c-0.58,0.64-1.09,1.33-1.54,2.06c-0.06,0.1-0.13,0.21-0.23,0.27C85.72,181.71,86.07,180.85,86.18,180.7z"/>
			<path class="st10" d="M81.62,179.72c-0.29-0.31-0.65-0.64-1.07-0.57c-0.02,0.2,0.16,0.36,0.31,0.49c0.43,0.39,0.8,0.85,1.08,1.36
				c0.1,0.18,0.2,0.37,0.37,0.49c0.58,0.37,0.46-0.29,0.3-0.58C82.36,180.47,81.97,180.08,81.62,179.72z"/>
			<path class="st10" d="M84.52,188.35c0.07,0.17,0.17,0.34,0.34,0.41c0.08-0.05,0.08-0.16,0.07-0.26
				c-0.08-1.04-0.16-2.07-0.24-3.11c-0.02-0.31-0.23-0.58-0.48-0.33c-0.11,0.11-0.06,0.73-0.07,0.88
				C84.09,186.78,84.18,187.58,84.52,188.35z"/>
			<path class="st10" d="M86.34,185.58c0.45,0.62,0.94,1.21,1.47,1.77c0.2,0.21,0.44,0.43,0.73,0.45c0.05-0.23-0.13-0.44-0.29-0.61
				c-0.59-0.62-1.12-1.3-1.59-2.02c-0.06-0.1-0.13-0.21-0.24-0.27C85.85,184.58,86.22,185.43,86.34,185.58z"/>
			<path class="st10" d="M81.8,186.67c-0.28,0.31-0.64,0.65-1.06,0.6c-0.02-0.2,0.15-0.36,0.29-0.5c0.42-0.4,0.78-0.87,1.04-1.39
				c0.09-0.18,0.19-0.38,0.36-0.49c0.57-0.38,0.46,0.28,0.32,0.57C82.53,185.9,82.14,186.3,81.8,186.67z"/>
			<path class="st10" d="M79.51,182.8c-0.11,0.02-0.25,0.06-0.28,0.17c-0.03,0.16,0.18,0.24,0.35,0.26
				c0.39,0.03,2.75,0.34,2.71-0.16C82.23,182.34,79.91,182.74,79.51,182.8z"/>
			<path class="st10" d="M90.12,182.6c0.05,0.17-0.05,0.35-0.19,0.45c-0.14,0.1-0.31,0.14-0.48,0.17c-0.4,0.08-3.28,0.53-2.96-0.22
				C86.8,182.26,89.5,182.56,90.12,182.6z"/>
		</g>
		<g>
			<path class="st10" d="M101.1,260.71c0.07-0.17,0.16-0.35,0.33-0.42c0.08,0.05,0.08,0.16,0.08,0.25
				c-0.06,1.04-0.11,2.08-0.17,3.11c-0.02,0.31-0.22,0.59-0.48,0.34c-0.11-0.1-0.08-0.73-0.09-0.88
				C100.71,262.28,100.77,261.49,101.1,260.71z"/>
			<path class="st10" d="M102.98,263.43c0.44-0.63,0.91-1.23,1.43-1.8c0.2-0.22,0.42-0.44,0.72-0.47c0.06,0.23-0.12,0.44-0.28,0.62
				c-0.58,0.64-1.09,1.33-1.54,2.06c-0.06,0.1-0.13,0.21-0.23,0.27C102.52,264.44,102.87,263.58,102.98,263.43z"/>
			<path class="st10" d="M98.42,262.45c-0.29-0.31-0.65-0.64-1.07-0.57c-0.02,0.2,0.16,0.36,0.31,0.49c0.43,0.39,0.8,0.85,1.08,1.36
				c0.1,0.18,0.19,0.37,0.37,0.49c0.58,0.37,0.46-0.29,0.3-0.58C99.16,263.2,98.77,262.82,98.42,262.45z"/>
			<path class="st10" d="M101.32,271.08c0.07,0.17,0.17,0.34,0.34,0.41c0.08-0.05,0.08-0.16,0.07-0.26
				c-0.08-1.04-0.16-2.07-0.24-3.11c-0.02-0.31-0.23-0.58-0.48-0.33c-0.11,0.11-0.06,0.73-0.07,0.88
				C100.89,269.51,100.98,270.31,101.32,271.08z"/>
			<path class="st10" d="M103.14,268.31c0.45,0.62,0.94,1.21,1.47,1.77c0.2,0.21,0.44,0.43,0.73,0.45c0.05-0.23-0.13-0.44-0.29-0.61
				c-0.59-0.62-1.12-1.3-1.59-2.02c-0.06-0.1-0.13-0.21-0.24-0.27C102.65,267.31,103.02,268.16,103.14,268.31z"/>
			<path class="st10" d="M98.6,269.4c-0.28,0.31-0.64,0.65-1.06,0.6c-0.02-0.2,0.15-0.36,0.29-0.5c0.42-0.4,0.78-0.87,1.04-1.39
				c0.09-0.18,0.19-0.38,0.36-0.49c0.57-0.38,0.46,0.28,0.32,0.57C99.33,268.64,98.94,269.03,98.6,269.4z"/>
			<path class="st10" d="M96.31,265.53c-0.11,0.02-0.25,0.06-0.28,0.17c-0.03,0.16,0.18,0.24,0.35,0.26
				c0.39,0.03,2.75,0.34,2.71-0.16C99.03,265.07,96.71,265.47,96.31,265.53z"/>
			<path class="st10" d="M106.92,265.33c0.05,0.17-0.05,0.35-0.19,0.45c-0.14,0.1-0.31,0.14-0.48,0.17
				c-0.4,0.08-3.28,0.53-2.96-0.22C103.6,264.99,106.3,265.29,106.92,265.33z"/>
		</g>
		<g>
			<path class="st10" d="M222.95,154.85c0.07-0.17,0.16-0.35,0.33-0.42c0.08,0.05,0.08,0.16,0.08,0.25
				c-0.06,1.04-0.11,2.08-0.17,3.11c-0.02,0.31-0.22,0.59-0.48,0.34c-0.11-0.1-0.08-0.73-0.09-0.88
				C222.56,156.43,222.63,155.63,222.95,154.85z"/>
			<path class="st10" d="M224.83,157.57c0.44-0.63,0.91-1.23,1.43-1.8c0.2-0.22,0.42-0.44,0.72-0.47c0.06,0.23-0.12,0.44-0.28,0.62
				c-0.58,0.64-1.09,1.33-1.54,2.06c-0.06,0.1-0.13,0.21-0.23,0.27C224.37,158.58,224.73,157.73,224.83,157.57z"/>
			<path class="st10" d="M220.28,156.6c-0.29-0.31-0.65-0.64-1.07-0.57c-0.02,0.2,0.16,0.36,0.31,0.49c0.43,0.39,0.8,0.85,1.08,1.36
				c0.1,0.18,0.2,0.37,0.37,0.49c0.58,0.37,0.46-0.29,0.3-0.58C221.02,157.34,220.62,156.96,220.28,156.6z"/>
			<path class="st10" d="M223.18,165.22c0.07,0.17,0.17,0.34,0.34,0.41c0.08-0.05,0.08-0.16,0.07-0.26
				c-0.08-1.04-0.16-2.07-0.24-3.11c-0.02-0.31-0.23-0.58-0.48-0.33c-0.11,0.11-0.06,0.73-0.07,0.88
				C222.75,163.65,222.83,164.45,223.18,165.22z"/>
			<path class="st10" d="M224.99,162.46c0.45,0.62,0.94,1.21,1.47,1.77c0.2,0.21,0.44,0.43,0.73,0.45c0.05-0.23-0.13-0.44-0.29-0.61
				c-0.59-0.62-1.12-1.3-1.59-2.02c-0.06-0.1-0.13-0.21-0.24-0.27C224.5,161.45,224.88,162.3,224.99,162.46z"/>
			<path class="st10" d="M220.46,163.54c-0.28,0.31-0.64,0.65-1.06,0.6c-0.02-0.2,0.15-0.36,0.29-0.5c0.42-0.4,0.78-0.87,1.04-1.39
				c0.09-0.18,0.19-0.38,0.36-0.49c0.57-0.38,0.46,0.28,0.32,0.57C221.18,162.78,220.79,163.17,220.46,163.54z"/>
			<path class="st10" d="M218.16,159.67c-0.11,0.02-0.25,0.06-0.28,0.17c-0.03,0.16,0.18,0.24,0.35,0.26
				c0.39,0.03,2.75,0.34,2.71-0.16C220.88,159.21,218.56,159.62,218.16,159.67z"/>
			<path class="st10" d="M228.77,159.48c0.05,0.17-0.05,0.35-0.19,0.45c-0.14,0.1-0.31,0.14-0.48,0.17
				c-0.4,0.08-3.28,0.53-2.96-0.22C225.46,159.13,228.16,159.43,228.77,159.48z"/>
		</g>
		<polygon class="st41" points="219.46,74.7 223.74,67.73 226.71,75.56 233.27,77.16 228.4,81.72 230.41,88.29 222.89,84.24 
			214.49,89.85 217.49,80.01 211.27,74.62 		"/>
		<polygon class="st41" points="277.21,127.03 272.99,120.02 281.31,120.98 285.74,115.88 287.56,122.3 294.32,123.54 
			287.26,128.36 288.39,138.39 281.03,131.21 273.39,134.26 		"/>
		<polygon class="st41" points="44.4,241.16 44.07,232.99 50.9,237.82 57.24,235.49 55.74,241.99 61.08,246.33 52.57,247.16 
			48.74,256.5 45.73,246.66 37.56,245.66 		"/>
	</g>
	<g class="st3">
		<path class="st25" d="M633.86,100.47c0,0,17.56,15.52,20.12,15.78c2.55,0.26,14.56-11.01,14.67-13.08
			c0.11-2.07-13.36-19.92-16.26-21.13C649.5,80.84,631.24,97.35,633.86,100.47z"/>
		<path class="st23" d="M695.34,103.43l36.49,34.84c3.46,3.31,3.59,8.79,0.28,12.26l-26.44,27.69c-3.31,3.46-8.79,3.59-12.26,0.28
			l-36.49-34.84c-3.47-3.31-3.59-8.8-0.28-12.27l0,0c2.27-2.38,2.19-6.15-0.19-8.43l-7.04-6.72c-1.35-1.29-3.15-2.06-5.01-1.95
			c-1.3,0.08-2.62-0.36-3.64-1.33c-0.97-0.92-1.47-2.15-1.5-3.39c-0.02-1.24,0.42-2.49,1.34-3.45l16.49-17.27
			c1.85-1.94,4.91-2,6.85-0.16c0.97,0.92,1.47,2.15,1.5,3.39c0,0.01,0,0.02,0,0.03c0.02,1.87,0.7,3.67,2.05,4.95l7.17,6.84
			c2.38,2.27,6.15,2.19,8.43-0.19l0.01-0.01C686.39,100.25,691.88,100.12,695.34,103.43z"/>
		<path class="st42" d="M694.64,106.81l34.16,32.61c2.78,2.65,2.88,7.07,0.23,9.85l-24.75,25.92c-2.65,2.78-7.07,2.88-9.85,0.23
			l-34.09-32.55c1.69-3.02,3.71-5.5,6.52-7.71c3.76-2.96,8.03-5.22,11.8-8.17c6.83-5.36,11.68-12.78,15.4-20.68
			C694.26,106.46,694.45,106.63,694.64,106.81z"/>
		<path class="st35" d="M726.86,140.38c0,0-1.23,1.74-3.3,4.46c-0.98-0.72-2.03-1.35-3.14-1.87c0.64,1.12,1.33,2.2,2.09,3.24
			c-2.6,3.39-6.18,7.87-10.13,12.35c-2.19-1.55-4.38-3.1-6.57-4.65c1.5,2.29,3.08,4.53,4.72,6.72c-2.68,2.95-5.48,5.82-8.23,8.3
			c-1.08-0.86-2.16-1.73-3.24-2.6c0.42,1.44,0.84,2.89,1.26,4.32c-1.66,1.4-3.3,2.62-4.86,3.6c-16.12-15.08-27.09-28.05-27.09-28.05
			s1.6-2.14,4.28-5.45c1.6,1.31,3.59,2.22,5.46,2.84c-0.24-0.39-2.07-2.96-3.6-5.1c1.65-1.99,3.58-4.25,5.7-6.62
			c1.07,0.72,2.16,1.4,3.27,2.07c-0.63-1.18-1.29-2.34-1.99-3.48c3.12-3.44,6.62-7.06,10.27-10.43c1.77,1.45,3.54,2.89,5.3,4.34
			c-1.2-1.97-2.4-3.93-3.61-5.89c1.36-1.23,2.75-2.42,4.14-3.53C709.41,122.78,726.86,140.38,726.86,140.38z"/>
		<path class="st43" d="M661.71,93.48l-16.59,17.38c-0.7,0.73-1.86,0.76-2.6,0.06l-0.11-0.11c-0.73-0.7-0.76-1.86-0.06-2.6
			l16.59-17.38c0.7-0.73,1.86-0.76,2.6-0.06l0.11,0.11C662.39,91.58,662.42,92.75,661.71,93.48z"/>
		<path class="st43" d="M658.66,133.82c-0.66,1.99-0.69,4.3,0.42,6.07c1.11,1.78,3.55,2.78,5.43,1.85c0.53-0.26,0.99-0.65,1.41-1.07
			c1.98-1.97,3.18-4.7,3.3-7.49c0.12-2.79-0.85-5.61-2.66-7.74c-2.06-2.43-4.71-1.87-5.53,1.21c-0.23,0.87,0.01,1.8-0.24,2.69
			C660.35,130.92,659.19,132.23,658.66,133.82z"/>
		<path class="st43" d="M651.41,113.33c2.3,2.5,4.79,4.84,7.42,6.99c0.15,0.12,0.32,0.25,0.52,0.25c0.18,0,0.33-0.12,0.45-0.25
			c0.83-0.89,0.45-2.33-0.08-3.42c-1.31-2.73-3.25-5.16-5.62-7.04C651.43,107.74,649.26,110.99,651.41,113.33z"/>
		<path class="st43" d="M650.58,87.36c0.53-0.62,1.07-1.33,1.08-2.15c-0.29-0.31-0.81-0.1-1.17,0.13c-3.2,2.05-6.22,4.38-9.01,6.96
			c-1.77,1.64-4.97,3.97-4.92,6.64C641.9,96.53,646.83,91.77,650.58,87.36z"/>
		<path class="st27" d="M689.43,141.41c1.25-0.48,1.99-1.87,2.02-3.21c0.02-1.34-0.55-2.63-1.29-3.74c1.71,1.7,3.7,3.12,5.88,4.17
			c0.4,0.19,0.84,0.38,1.27,0.28c0.51-0.11,0.86-0.57,1.1-1.04c1.55-3.06-0.76-7.33-4.17-7.7c2.32-1.73,4.96-3.55,7.84-3.22
			c1.83,0.21,3.44,1.27,4.97,2.31c1.94,1.31,3.92,2.66,5.34,4.53c1.41,1.87,2.18,4.39,1.4,6.6c-0.87-1.8-2.21-3.87-4.21-3.75
			c-1.68,0.1-2.88,1.92-2.77,3.6c0.11,1.68,1.22,3.15,2.53,4.22c-0.62-1.38-2.22-2.24-3.72-2.02c-1.5,0.23-2.76,1.53-2.95,3.03
			c-0.16,1.29,0.4,2.54,0.74,3.8s0.4,2.77-0.52,3.68c-1.42-1.36-3.38-2.14-5.34-2.12c-0.58,0-1.18,0.08-1.67,0.39
			c-1.13,0.7-1.28,2.39-0.68,3.57c0.61,1.19,1.75,1.99,2.84,2.75c-1.08-0.87-2.2-1.77-3.52-2.19c-1.32-0.43-2.92-0.29-3.9,0.7
			c-1.21,1.22-1.03,3.35-0.02,4.73c1.01,1.39,2.65,2.17,4.27,2.75c-4.52,0.54-9.25-1.19-12.35-4.51c-3.11-3.32-4.51-8.16-3.66-12.63
			c0.79,2.72,2.08,5.92,4.88,6.39c2.26,0.38,4.32-1.3,5.82-3.03c0.39-0.45,0.78-0.92,0.98-1.49c0.53-1.49-0.39-3.1-1.47-4.26
			c-0.81-0.86-2.24-1.75-2.08-2.9C687.67,141.49,688.64,141.71,689.43,141.41z"/>
	</g>
	<g class="st3">
		<path class="st44" d="M440.75,148.89c-1.55,2.64-4.12,4.78-7.13,5.33c-2.5,0.46-5.28-0.35-7.01-2.16
			c2.05,3.81-0.81,9.62-5.32,10.49c-3.36,0.66-7.02-0.97-8.89-3.84c0.42,2.2,0.85,4.38,1.26,6.57c-1.91,1.89-3.91,3.83-6.43,4.79
			c-2.52,0.96-5.72,0.66-7.43-1.43c1.04,1.88,0.27,4.35-1.21,5.9c-1.48,1.56-3.54,2.41-5.52,3.21c-6.02,2.45-12.17,4.92-18.64,5.28
			c1.94-4.84-1.89-11.04-7.1-11.46c-2.82-0.23-5.52,0.97-8.15,2c-4.73,1.86-9.63,3.25-14.63,4.18c-5.36,1-10.99,1.44-16.2-0.21
			c-3.02-0.96-5.79-2.58-8.35-4.45c-3.03-2.21-5.78-4.85-8.15-7.79c-7.88-9.76-11.65-22.87-8.23-34.84
			c1.74-6.06,5.12-11.52,8.92-16.54c11.21-14.82,26.52-26.51,43.75-33.46c3.58-1.44,7.34-2.7,11.19-2.61
			c4.78,0.11,9.24,2.25,13.51,4.37c4.37,2.17,8.77,4.38,12.62,7.37c7.02,5.44,11.85,13.14,16.55,20.67
			c2.81,4.51,4.77,8.86,9.55,11.34c4.87,2.5,7.95,4.27,9.36,10.06c1.04,4.31,1.66,9.27,5.23,11.9c0.62,0.45,1.31,0.83,2.02,1.22
			C438.33,145.82,440.36,146.8,440.75,148.89z"/>
		<path class="st37" d="M440.75,140.28c-1.55,2.64-4.12,4.78-7.13,5.33c-2.5,0.46-5.28-0.35-7.01-2.16
			c2.05,3.81-0.81,9.62-5.32,10.49c-3.36,0.66-7.02-0.97-8.89-3.84c0.42,2.2,0.85,4.38,1.26,6.57c-1.91,1.89-3.91,3.83-6.43,4.79
			c-2.52,0.96-5.72,0.66-7.43-1.43c1.04,1.88,0.27,4.35-1.21,5.9c-1.48,1.56-3.54,2.41-5.52,3.21c-6.02,2.45-12.17,4.92-18.64,5.28
			c1.94-4.84-1.89-11.04-7.1-11.46c-2.82-0.23-5.52,0.97-8.15,2c-4.73,1.86-9.63,3.25-14.63,4.18c-5.36,1-10.99,1.44-16.2-0.21
			c-3.02-0.96-5.79-2.58-8.35-4.45c-3.03-2.21-5.78-4.85-8.15-7.79c-7.88-9.76-11.65-22.87-8.23-34.84
			c1.74-6.06,5.12-11.52,8.92-16.54c11.21-14.82,26.52-26.51,43.75-33.46c3.58-1.44,7.34-2.7,11.19-2.61
			c4.78,0.11,9.24,2.25,13.51,4.37c4.37,2.17,8.77,4.38,12.62,7.37c7.02,5.44,11.85,13.14,16.55,20.67
			c2.81,4.51,4.77,8.86,9.55,11.34c4.87,2.5,7.95,4.27,9.36,10.06c1.04,4.31,1.66,9.27,5.23,11.9c0.62,0.45,1.31,0.83,2.02,1.22
			C438.33,137.21,440.36,138.19,440.75,140.28z"/>
		<path class="st45" d="M377.8,119.43c-1.14,5.74-3.24,11.3-6.19,16.38c-0.56,0.96-1.16,1.91-1.99,2.66
			c-0.98,0.88-2.21,1.42-3.48,1.74c-4.45,1.12-9.35-0.71-12.36-4.12c-1.13-1.29-1.99-2.78-2.46-4.44
			c-0.96-3.37-0.43-7.02,0.69-10.35c2.21-6.51,8-15.17,15.07-17.24c1.12-0.33,2.15-0.45,3.09-0.41
			C377.04,103.94,379.01,113.35,377.8,119.43z"/>
		<path class="st45" d="M409.65,114.51c-6.97,1.54-14.31-0.63-20.52-4.16c-2.05-1.16-4.05-2.52-5.48-4.38
			c-1.3-1.7-2.05-3.9-1.72-5.99c0.03-0.22,0.08-0.44,0.14-0.65c1.37-5.01,8.94-6.97,13.52-6.11c5.59,1.07,9.26,7.29,12.12,11.69
			c0.81,1.26,1.64,2.54,2.16,3.93c0.08,0.22,0.15,0.44,0.22,0.66C410.58,111.16,410.57,113.05,409.65,114.51z"/>
		<path class="st45" d="M392.18,121.7c0.7,3.33,1.41,6.66,2.11,9.99c0.22,1.04,0.46,2.13,1.15,2.94c0.69,0.81,1.98,1.22,2.84,0.6
			c1.24-0.89,0.73-3,1.76-4.13c1.14-1.23,3.23-0.49,4.79-1.1c1.89-0.74,2.41-3.39,1.5-5.2c-0.91-1.82-2.78-2.93-4.63-3.78
			c-1.57-0.72-3.23-1.31-4.96-1.36c-1.73-0.04-3.53,0.54-4.65,1.86"/>
		<path class="st27" d="M315.97,104.88c-4.04,5.13-6.99,11.34-7.23,17.87c-0.19,5.29,1.78,11.05,6.36,13.71
			c1.53,0.89,3.4,1.39,5.07,0.8c1.05-0.37,1.91-1.12,2.67-1.93c6.26-6.66,6.54-16.75,9.35-25.45c1.32-4.07,13-22.01,4.04-22.54
			C330.3,87.02,319.24,100.74,315.97,104.88z"/>
		<path class="st46" d="M440.75,140.28c-1.55,2.64-4.12,4.78-7.13,5.33c-2.5,0.46-5.28-0.35-7.01-2.16
			c2.05,3.81-0.81,9.62-5.32,10.49c-3.36,0.66-7.02-0.97-8.89-3.84c0.42,2.2,0.85,4.38,1.26,6.57c-1.91,1.89-3.91,3.83-6.43,4.79
			c-2.52,0.96-5.72,0.66-7.43-1.43c1.04,1.88,0.27,4.35-1.21,5.9c-1.48,1.56-3.54,2.41-5.52,3.21c-6.02,2.45-12.17,4.92-18.64,5.28
			c1.94-4.84-1.89-11.04-7.1-11.46c-2.82-0.23-5.52,0.97-8.15,2c-4.73,1.86-9.63,3.25-14.63,4.18c-5.36,1-10.99,1.44-16.2-0.21
			c-3.02-0.96-5.79-2.58-8.35-4.45c-3.03-2.21-5.78-4.85-8.15-7.79c7.6,4.59,17.28,6.6,25.16,5.52c2.32-0.32,4.67-0.88,6.57-2.25
			c1.89-1.37,3.24-3.7,2.9-6.01c-0.4-2.7-2.81-4.55-4.48-6.7c-3.42-4.42-3.75-10.97-0.77-15.7c1.71,3.68,3.42,7.36,5.13,11.04
			c1.7,3.66,3.76,7.66,7.52,9.08c5.59,2.12,12.61-2.31,17.52,1.09c4.57,3.15,4.39,11.42,9.74,12.93c1.44,0.41,3,0.16,4.38-0.4
			c5.26-2.11,7.84-9.13,5.22-14.15c2.13,1.9,4.33,3.83,7,4.83c2.68,1,5.96,0.88,8.06-1.07c3.1-2.87,2.22-7.89,1.1-11.96
			c1.99,4.33,8.1,6.11,12.1,3.51c4-2.58,4.9-8.88,1.77-12.48c2.07,1.68,4.18,3.38,6.69,4.28c2.49,0.89,5.5,0.83,7.58-0.82
			c0.46-0.37,0.88-0.82,1.27-1.3C438.33,137.21,440.36,138.19,440.75,140.28z"/>
		<path class="st46" d="M343.61,115.71c0.4-2.79-1.03-5.73-0.11-8.4c0.75-2.18,2.86-3.56,4.84-4.76c2.06-1.26,4.12-2.51,6.18-3.77
			c1.29-0.79,2.63-1.59,4.12-1.84c3.6-0.6,3.24,1.15,1.78,2.77c-1.3,1.44-5.22,2.32-6.98,3.56
			C349.06,106.36,345.55,110.7,343.61,115.71z"/>
		<path class="st46" d="M379.66,90.11c3.16-3.65,8.16-5.62,12.97-5.11c-1.96-2.02-5.15-2.74-7.78-1.76
			c-2.64,0.98-4.58,3.61-4.75,6.42"/>
		<path class="st47" d="M377.8,119.43c-1.14,5.74-3.24,11.3-6.19,16.38c-0.56,0.96-1.16,1.91-1.99,2.66
			c-0.98,0.88-2.21,1.42-3.48,1.74c-4.45,1.12-9.35-0.71-12.36-4.12c0.43-0.48,0.92-0.91,1.41-1.31c4.92-4.04,9.45-8.73,12.3-14.42
			c1.6-3.21,2.64-6.74,2.86-10.32c0.11-1.85-0.48-4.33-0.18-6.38C377.04,103.94,379.01,113.35,377.8,119.43z"/>
		<path class="st47" d="M409.65,114.51c-6.97,1.54-14.31-0.63-20.52-4.16c-2.05-1.16-4.05-2.52-5.48-4.38
			c-1.3-1.7-2.05-3.9-1.72-5.99c2.01,0.65,3.86,1.53,5.16,2.3c5.01,2.97,9.85,7.02,15.67,7.24c2.38,0.09,4.73-0.49,7.11-0.67
			c0.08,0.22,0.15,0.44,0.22,0.66C410.58,111.16,410.57,113.05,409.65,114.51z"/>
	</g>
	<path class="st48" d="M527.72,407.72c0.03-0.44,0.08-0.88,0.14-1.33C527.9,406.81,527.85,407.26,527.72,407.72z"/>
	<g class="st3">
		<path class="st44" d="M301.14,393.51c-0.47-7.09-0.25-19.38,4.72-33.22c3.25-9.06,7.45-20.74,19.08-29.33
			c3.52-2.59,11.18-8.74,21.91-9.15c2.85-0.11,5.59,0.24,8.29,0.58c0.42-3.86,0.39-7.75-0.36-11.55
			c-1.24-6.25-4.57-12.26-9.87-15.81c-1.26-0.84-2.69-1.62-3.33-3c-1.15-2.46,1.16-5.45,3.83-5.91c2.67-0.46,5.33,0.85,7.56,2.41
			c8.32,5.82,13.36,15.15,17.9,24.23c1.03,2.06,2.08,4.17,3.77,5.74c0.06,0.06,0.13,0.11,0.2,0.16c1.93-1.14,3.85-2.32,5.87-3.31
			c11.39-5.58,25.25-4.41,36.85,0.73c11.6,5.16,21.23,13.89,29.78,23.26c6.5,7.12,12.54,14.77,16.76,23.44
			c1.08,2.22,2.03,4.51,2.83,6.85c0.57,1.64,1.06,3.31,1.46,5c1.27,5.29,1.71,10.76,1.01,16.16c-1.49,11.54-6.3,23.88-13.92,32.84
			c-6.17,7.25-14.66,12.11-23.2,16.34c-15.31,7.6-31.83,13.73-48.99,15.11c-14.12,1.14-31.22-0.48-44.43-5.84
			c-14.11-5.7-22.07-15.06-24-17.44c-7.48-9.15-10.48-18.63-11.97-25.94c-0.54-2.63-0.88-4.96-1.17-6.9
			C301.56,397.93,301.31,396.05,301.14,393.51z"/>
		<path class="st49" d="M384.27,313.02c-1.68-1.57-2.74-3.68-3.77-5.74c-4.54-9.08-9.58-18.41-17.9-24.23
			c-2.22-1.56-4.88-2.87-7.56-2.41c-2.67,0.46-4.98,3.45-3.83,5.91c0.64,1.37,2.07,2.15,3.33,3c5.29,3.55,8.63,9.55,9.87,15.81
			c1.24,6.25,0.54,12.75-0.95,18.95c0.02-0.08,15.62-3.4,17.17-3.99c1.32-0.5,7.56-2.34,7.99-3.75
			C389.26,314.47,385.79,314.43,384.27,313.02z"/>
		<path class="st50" d="M311.34,393.49c0.29,1.94,0.62,4.28,1.16,6.9c1.49,7.3,4.5,16.79,11.97,25.94c1.94,2.38,9.89,11.74,24,17.44
			c13.22,5.36,30.31,6.98,44.43,5.84c17.16-1.38,33.67-7.51,48.99-15.11c8.53-4.24,17.02-9.09,23.2-16.34
			c7.62-8.96,12.42-21.3,13.92-32.84c0.69-5.39,0.26-10.86-1.01-16.16c-0.4-1.69-0.89-3.36-1.46-5c-0.8-2.34-1.75-4.63-2.83-6.85
			c-4.22-8.67-10.26-16.31-16.76-23.44c-8.55-9.37-18.18-18.11-29.78-23.26c-11.59-5.15-25.46-6.31-36.85-0.73
			c-3.69,1.8-7.03,4.26-10.77,5.94c-7.86,3.52-15.06,0.21-23.09,0.51c-10.74,0.41-18.4,6.56-21.91,9.15
			c-11.63,8.59-15.83,20.27-19.08,29.33c-4.97,13.84-5.19,26.13-4.72,33.22C310.94,390.58,311.19,392.45,311.34,393.49z"/>
		<path class="st51" d="M335.63,409.14c0.13,0.28,0.26,0.57,0.4,0.85c1.44,3,3.03,6.06,5.66,8.1c4.77,3.69,12.08,2.82,16.7-1.06
			c4.62-3.88,6.76-10.12,6.85-16.15c0.03-1.75-1.35-3.75-1.62-5.6c-0.23-1.59-0.45-3.11-0.66-4.55c-0.77-5.77-1.11-10.19-1.17-11.64
			c-0.04-0.73-0.1-2.12-0.19-3.99c-0.05-1.87-0.04-4.24-0.06-6.9c-0.01-1.33,0.08-2.74,0.12-4.21c0.07-1.46,0.07-2.98,0.21-4.53
			c0.24-3.1,0.45-6.33,0.88-9.49c0.69-6.34,1.91-12.42,2.9-16.9c1.11-4.46,1.95-7.34,2.11-7.3c0.18,0.04-0.34,3-1.14,7.49
			c-0.69,4.52-1.63,10.59-2.08,16.89c-0.31,3.14-0.41,6.34-0.56,9.41c-0.09,1.53-0.05,3.04-0.08,4.48c0,1.45-0.05,2.84-0.01,4.16
			c0.08,2.63,0.12,4.96,0.2,6.81c0.11,1.85,0.2,3.22,0.24,3.93c0.05,1.44,0.32,5.8,0.95,11.51c0.17,1.43,0.35,2.94,0.54,4.51
			c0.22,1.57,0.5,3.19,0.75,4.86c0.87,5.68,4.43,12.1,8.76,15.9c1.7,1.49,3.67,2.65,5.71,3.65c7.58,3.73,17.33,5.08,24.02-0.06
			c11.59-8.92,7.78-24.89,4.81-36.69c-1.36-5.39-2.52-9.46-2.93-10.79c-0.72-2.68-4.24-15.11-9.23-26.26
			c-2.38-5.62-5.18-10.85-7.26-14.74c-2.2-3.82-3.65-6.33-3.49-6.43c0.14-0.09,1.87,2.23,4.35,5.92c2.36,3.75,5.44,8.91,8.05,14.5
			c5.47,11.08,9.31,23.61,10.04,26.31c0.42,1.34,1.52,5.48,2.76,10.95c1.64,7.24,2.23,15,4.99,21.94c1.7,4.27,4.94,8.05,9.23,9.71
			c4.29,1.65,9.6,0.86,12.76-2.47c1.81-1.91,2.81-4.44,3.55-6.96c3.26-11.15,1.38-20.22-2.65-30.65c-1.96-5.06-3.83-8.79-4.49-10.11
			c-0.66-1.32-2.64-5.37-5.75-10.42c-3.08-5.06-7.37-11.06-11.98-16.57c-4.6-5.52-9.5-10.55-13.24-14.2
			c-3.74-3.64-6.28-5.95-6.15-6.1c0.06-0.07,0.76,0.42,1.96,1.35c1.21,0.92,2.88,2.3,4.86,4.02c3.97,3.43,9.1,8.31,13.93,13.75
			c4.85,5.42,9.36,11.4,12.61,16.49c3.28,5.08,5.37,9.18,6.04,10.54c0.68,1.35,2.53,5.21,4.41,10.43
			c2.85,7.91,3.84,15.42,12.53,19.15c8.86,3.8,13.03-3.66,17.12-10.08c2.36-3.7,4.84-8.13,6.07-12.71
			c1.27,5.29,1.71,10.76,1.01,16.16c-1.49,11.54-6.3,23.88-13.92,32.84c-6.17,7.25-14.66,12.11-23.2,16.34
			c-15.31,7.6-31.83,13.73-48.99,15.11c-14.12,1.14-31.22-0.48-44.43-5.84c-14.11-5.7-22.07-15.06-24-17.44
			c-7.48-9.15-10.48-18.63-11.97-25.94c4.56,4.01,8.64,5.71,13.26-0.14c4-5.06,2.99-10.21,3.3-16.07c0.08-1.51,0.41-5.72,1.11-11.15
			c0.71-5.42,1.64-12.13,3.23-18.54c0.79-3.2,1.75-6.32,2.86-9.14c1.11-2.82,2.33-5.34,3.57-7.38c0.61-1.02,1.21-1.93,1.77-2.72
			c0.58-0.77,1.06-1.45,1.51-1.96c0.9-1.03,1.44-1.59,1.51-1.53c0.18,0.14-1.8,2.53-3.92,6.69c-2.16,4.14-4.24,10.1-5.54,16.44
			c-1.33,6.33-2.07,12.99-2.65,18.4c-0.56,5.41-0.82,9.57-0.9,11.04C331.15,393.38,331.85,400.9,335.63,409.14z"/>
		<path class="st52" d="M392.05,359.78c-0.31,1.96-0.9,4.1-2.6,5.13c-1.41,0.86-3.28,0.67-4.74-0.09c-1.47-0.76-2.61-2.02-3.65-3.3
			c-5.88-7.26-9.51-16.3-10.29-25.61c-0.87-10.44,9.68-11.8,14.83-4.42C391.25,339.56,393.57,350.06,392.05,359.78z"/>
		<path class="st52" d="M360.76,337.3c-0.88,9.93-1.94,20.38-7.67,28.55c-0.41,0.58-0.89,1.19-1.58,1.38
			c-0.74,0.2-1.54-0.14-2.14-0.62c-1.67-1.32-2.3-3.54-2.76-5.61c-1.86-8.35-2.46-17.4,1.09-25.18
			C351.7,327.04,361.8,325.56,360.76,337.3z"/>
		<path class="st53" d="M407.84,354.27c1.13,2.78,3.82,4.87,6.79,5.29c2.97,0.41,6.13-0.86,7.97-3.23c1.9-2.43,2.36-5.66,3.8-8.38
			c2.04-3.84,5.42-5.8,9.17-7.13c1.51-0.55,3.08-0.99,4.66-1.41c-3.36-4.37-10.21-7.57-15.65-8.27c-6.27-0.8-13.29,1.9-16.04,7.59
			c-0.51,1.06-0.86,2.17-1.09,3.31c-0.43,2.1-0.48,4.32-0.45,6.49C407.02,350.46,407.11,352.45,407.84,354.27z"/>
		<path class="st53" d="M351.15,354.58c0.49,0.09,0.97,0.17,1.44,0.23c6.29,0.93,11.84,0.32,17.73,4.48
			c3.77,2.66,7.16,6.5,11.76,6.95c4.55,0.43,9.09-3.28,9.56-7.82c0.2-1.94-0.25-3.88-1.08-5.66c-0.4-0.89-0.9-1.75-1.45-2.55
			c-4.47-6.56-12.78-10.29-20.65-9.3C361.54,341.78,352.65,347.28,351.15,354.58z"/>
		<path class="st54" d="M365.87,385.19c0.03,0.1,0.07,0.18,0.1,0.27c2.46,6.25,3.58,2.34,8.65,2.43c0.58,0.01,1.2,0.11,1.6,0.53
			c0.26,0.28,0.38,0.66,0.5,1.03c1.42,4.6,1.15,7.54,6.11,8.56c5.5,1.12,4.95-1.21,8-5.55c0.3-0.43,0.63-0.87,1.12-1.05
			c1.05-0.41,2.1,0.54,2.82,1.4c2.64,3.14,4.9,8.36,9.5,5.62c2.79-1.66,3.74-5.67,5.51-8.2c0.2-0.28,0.43-0.58,0.76-0.63
			c0.26-0.05,0.52,0.07,0.77,0.19c3.06,1.55,5.47,6.38,8.24,5.91c2.11-0.36,5.14-4.62,6.42-6.15c1.59-1.92,3.69-4.58,5.15-7.45
			c1.52-2.96,2.38-6.12,1.38-8.9c-3.32,1.86-6.27,5-9.19,7.48c-0.31,0.26-0.64,0.54-1.05,0.6c-0.43,0.06-0.85-0.14-1.25-0.32
			c-6.08-2.97-9.98-5.34-15.79-0.82c-1.57,1.22-3.18,2.46-5.07,3.09c-1.88,0.65-4.11,0.6-5.7-0.6c-1.53-1.15-2.64-4.54-4.51-5.04
			c-2.09-0.55-6.83,2.73-8.78,3.62c-0.65,0.29-1.37,0.6-2.05,0.4c-0.61-0.18-1.04-0.72-1.39-1.25c-1.44-2.13-1.91-5.25-3.87-6.86
			c-1.81,1.12-3.5,2.47-5.27,3.69c-0.82,0.56-3.51-9.12-3.63-10.25C363.41,372.84,363.7,379.47,365.87,385.19z"/>
		<path class="st54" d="M430.68,338.31c1.54,0.51,3.19,1.5,4.88,2.51c1.51-0.55,3.08-0.99,4.66-1.41
			c-3.36-4.37-10.21-7.57-15.65-8.27c-6.27-0.8-13.29,1.9-16.04,7.59c-0.51,1.06-0.86,2.17-1.09,3.31c2.09-1.59,4.41-2.86,6.89-3.72
			C419.59,336.49,425.42,336.58,430.68,338.31z"/>
		<path class="st53" d="M371.36,386.07c-1.93,0.13-3.77-0.2-5.49-0.88c0.03,0.1,0.07,0.18,0.1,0.27c2.46,6.25,3.58,2.34,8.65,2.43
			c0.58,0.01,1.2,0.11,1.6,0.53c0.26,0.28,0.38,0.66,0.5,1.03c1.42,4.6,1.15,7.54,6.11,8.56c5.5,1.12,4.95-1.21,8-5.55
			c0.3-0.43,0.63-0.87,1.12-1.05c1.05-0.41,2.1,0.54,2.82,1.4c2.64,3.14,4.9,8.36,9.5,5.62c2.79-1.66,3.74-5.67,5.51-8.2
			c0.2-0.28,0.43-0.58,0.76-0.63c0.26-0.05,0.52,0.07,0.77,0.19c3.06,1.55,5.47,6.38,8.24,5.91c2.11-0.36,5.14-4.62,6.42-6.15
			c1.59-1.92,3.69-4.58,5.15-7.45c-0.64,0.41-1.27,0.86-1.86,1.3c-3.01,2.26-6.57,4.77-10.2,3.77c-2.92-0.8-5.13-3.77-8.16-3.72
			c-4.18,0.08-6.27,5.73-10.36,6.58c-3.59,0.74-7-2.54-10.65-2.16c-2.3,0.23-4.69,1.89-6.7,0.75c-0.89-0.51-1.43-1.47-2.21-2.13
			C378.45,384.34,374.67,385.84,371.36,386.07z"/>
		<path class="st54" d="M351.15,354.58c0.49,0.09,0.97,0.17,1.44,0.23c0.73-0.89,1.57-1.7,2.45-2.45
			c7.88-6.64,19.72-8.17,29.03-3.74c2.33,1.11,4.47,2.52,6.5,4.13c-0.4-0.89-0.9-1.75-1.45-2.55c-4.47-6.56-12.78-10.29-20.65-9.3
			C361.54,341.78,352.65,347.28,351.15,354.58z"/>
		<path class="st55" d="M376.4,305.03c0.15,0.55,0.29,1.15,0.13,1.7c-0.16,0.55-0.72,1.03-1.28,0.89c-0.44-0.11-0.71-0.54-0.93-0.94
			c-2.27-4.09-4.24-8.41-7.01-12.2c-1.36-1.85-8.17-6.99-6.81-8.29C365.68,281.26,375.54,301.86,376.4,305.03z"/>
		<path class="st52" d="M439.84,322.33c4.7,3.37,9.37,7.05,12.35,12.01c2.97,4.96,3.93,11.51,1.01,16.5c-0.26,0.45-0.61,0.92-1.12,1
			c-0.37,0.06-0.73-0.1-1.05-0.29c-3.15-1.83-3.71-6.01-5.05-9.39c-3.27-8.28-12.14-12.75-20.52-15.76
			c-4.43-1.59-9.65-3.1-12.85-6.79c-2.44-2.82-2.69-7.38,1.54-8.76C421.61,308.4,434.23,318.31,439.84,322.33z"/>
	</g>
	<g class="st3">
		<polygon class="st37" points="589.92,376.84 589.29,403.52 653.22,422.47 664.6,420.1 666.03,399.28 		"/>
		<path class="st56" d="M647.24,301.43c0,0,62.62,17.15,71.87,20.56c9.25,3.41,17.41,16.92,10.65,33.47
			c-6.75,16.55-51.17,65.85-58.78,72.24c-7.61,6.39-84.47-16.66-87.51-19.1c-3.04-2.43-0.43-11.32,6.15-9.56
			c6.57,1.76,63.72,19.53,68.04,18.49c4.32-1.04,4.99-9.98,1.22-14c-3.77-4.02-70.35-19.34-75.59-26.52
			c-5.23-7.18,43.99-60.62,47.28-65.97C633.85,305.69,639.82,301.98,647.24,301.43z"/>
		<path class="st46" d="M601.67,393.97c0,0,30.06,11.07,36.09,11.65C624.07,407.14,605.93,401.12,601.67,393.97z"/>
		<path class="st57" d="M627.32,402.76l-18.17-5.05c0,0-10.01,8.46-10.4,21.12c6.75-4.08,9.28-3.8,9.28-3.8l6.33,9.55
			C614.36,424.58,617.07,406.53,627.32,402.76z"/>
		<path class="st58" d="M669.71,390.94c-1.61,1.9-3.28,4.59-1.91,6.67c14.1-14.85,27.59-30.28,40.42-46.24
			c4.8-5.97,10.03-12.45,11.96-20.01c-9.1,8.69-16.81,19.71-24.96,29.37C686.71,370.79,678.21,380.86,669.71,390.94z"/>
		<path class="st50" d="M703.85,322.52c2.79,0.75,5.59,1.5,8.38,2.25c1.04,0.28,2.32,0.89,2.2,1.96c-0.04,0.36-0.24,0.67-0.45,0.97
			c-1.75,2.57-3.82,4.91-6.14,6.97c-1.17,0.17-1.94-1.29-1.86-2.48c0.07-1.18,0.58-2.37,0.31-3.52c-0.51-2.15-3.54-3.49-3.06-5.65"
			/>
		<path class="st50" d="M651.71,310.13c-2.16-2.01-5.43-2.74-8.24-1.84c-2.81,0.9-5.05,3.4-5.64,6.29
			c-0.05,0.24-0.08,0.49,0.02,0.72c0.23,0.49,0.92,0.48,1.46,0.38c1.54-0.27,3.27-0.67,4.06-2.02c0.24-0.41,0.38-0.89,0.69-1.25
			c0.88-1.01,2.48-0.55,3.8-0.32c1.32,0.23,3.19-0.44,2.88-1.74"/>
		<path class="st50" d="M593.78,365.73c-0.77,1.23-2.03,2.07-2.92,3.22s-1.35,2.91-0.36,3.98c0.48,0.52,1.19,0.75,1.86,0.96
			c1.75,0.54,3.5,1.08,5.25,1.62c1.02,0.31,2.38,0.52,2.95-0.39c0.61-0.97-0.37-2.2-1.4-2.7c-1.04-0.5-2.3-0.77-2.91-1.74
			c1-1.11,1.52-2.63,1.43-4.13c-0.65-0.67-1.78-0.79-2.55-0.27"/>
		<path class="st50" d="M665,384.75c-1.31,1.84-2.62,3.68-3.92,5.52c-0.45,0.64-0.95,1.31-1.67,1.61c-0.7,0.29-1.49,0.18-2.23,0.04
			c-2.47-0.48-4.87-1.32-7.1-2.5c-0.33-0.18-0.67-0.37-0.89-0.68c-0.56-0.79-0.07-1.92,0.67-2.55c0.83-0.7,1.95-1.04,3.04-0.92
			c0.62,0.07,1.22,0.28,1.84,0.28c1.74,0.01,3.09-1.55,4.78-1.95c1.73-0.42,3.7,0.59,4.36,2.24"/>
		<path class="st59" d="M640.49,326.38c7.14-5.69,18.14-6.25,25.45-0.78c2.63,1.97,4.75,4.61,6.1,7.6
			c4.08,9.03,0.29,20.5-7.65,26.43c-7.94,5.93-19.09,6.6-28.31,2.97c-4.22-1.66-8.38-4.48-9.78-8.79
			c-1.74-5.33,1.3-11.08,5.15-15.15c4.86-5.14,11.54-8.97,18.61-8.86c7.07,0.1,14.25,4.93,15.61,11.87
			c1.09,5.56-1.75,11.48-6.37,14.76c-4.62,3.28-10.72,4.07-16.26,2.86c-1.91-0.42-3.81-1.08-5.34-2.29
			c-3.33-2.65-4.24-7.6-2.89-11.64c1.35-4.04,4.57-7.22,8.18-9.47c3.84-2.38,8.84-3.84,12.81-1.69c4.18,2.27,5.59,8.1,3.68,12.46
			c-1.92,4.36-6.47,7.16-11.16,7.93c-2.04,0.34-4.28,0.3-6.02-0.82c-2.82-1.83-3.28-6.07-1.68-9.02c1.61-2.95,4.73-4.78,7.92-5.87
			c1.33-0.46,3.01-0.73,3.97,0.3c0.46,0.49,0.63,1.19,0.7,1.86c0.33,3.43-2.09,6.91-5.42,7.8c-1.91-1.18-1.47-4.65,0.66-5.32"/>
	</g>
</g>
</svg>
