<?xml version="1.0" encoding="utf-8"?>
<!-- Generator: Adobe Illustrator 23.0.1, SVG Export Plug-In . SVG Version: 6.00 Build 0)  -->
<svg version="1.1" id="Layer_1" xmlns="http://www.w3.org/2000/svg" xmlns:xlink="http://www.w3.org/1999/xlink" x="0px" y="0px"
	 viewBox="0 0 1000 2500" style="enable-background:new 0 0 1000 2500;" xml:space="preserve">
<style type="text/css">
	.st0{fill:#76E548;}
	.st1{fill:#8EFF68;}
	.st2{opacity:0.75;fill:#8EFF68;}
</style>
<g>
	<path class="st0" d="M837.3,569.13c-17.73,85.28,25.4,168.39,46.94,251.36c18.48,71.21,21.12,154.21,7.26,228.24
		c-10.89,58.05-58.4,153.8-135.93,125.85c-80.75-29.11-119.03,55.25-130.18,106.09c-21.4,97.48,34.59,158.37,55.94,213.71
		c22.99,59.59,9.91,143.15-16.98,197.21c-26.92,54.05-64.7,87.41-98.99,127.04c-30,34.67-63.09,89.92-87.66,163.41
		c-11.22,33.57-39.57,130.23-11.7,229.96c18.32,65.56,45.94,78.82,54,82c20.83,8.21,44,7,44,7c11.82-0.62,22.03-3.22,29-5
		c23.48-5.99,35.01-13.43,36.66-11c1.82,2.69-11.08,13.81-20.21,22.45c-15.79,14.95-35.4,23.26-53.07,28.47
		c-36.29,10.69-74.55,4.68-108.21-22.41c-55.87-44.99-95.4-152.15-87.56-257.54c4.17-55.91,20.27-106.63,31.33-159.6
		c11.08-53.01,16.74-114.68,0.76-164.01c-26.08-80.51-95.08-89.08-126.52-163.68c-32.99-78.31-10.22-186.65,11.28-275.7
		c21.5-89.09,30.07-133.62-10.26-200.89c-37.33-62.17-94.93-52.32-141.18-92.51C64.5,946.16,35.24,886.59,26.68,825.74
		c-6.63-47.06-7.02-86.61-3.62-121.33c6.85-69.8,28.95-120.26,46.4-173.67c11.99-36.72,21.78-74.82,22.9-121.56
		c0.06-2.57,0.09-5.11,0.05-7.61c-0.72-78.85-42.02-140.78-74.98-197.34c-5.19-8.91-10.41-18.16-15.48-27.73L1.16,3.3L976.28-2
		c56.3,189.67-9.89,370.08-51.31,431.53C894.35,474.99,850.96,503.41,837.3,569.13z"/>
	<path class="st1" d="M199.58,468.37c4.14-41.14,33.33-67.63,55.05-49.97c23.05,18.74,30.2,69.91,30.8,114.27
		c0.58,43.11-2.59,87.64-14.89,124.9c-12.3,37.26-35.15,65.87-59.8,64.67c-21.95-1.07-44.7-35.48-39.88-72.89
		c-42.44,142.79,2.56,339.71,89.17,394.42c122.4,77.32,78.44,217.1,46.31,377.33c-37.43,186.67,113.58,200.49,130.73,360.47
		c17.17,159.97-46.06,193.17-40.69,336.78c0.9,24.23,0.23,55.58,13.85,90.18c9.85,25.02,23.33,44,30.77,54.48
		c10,14.08,20.2,28.22,38,42c10.13,7.84,20.38,15.78,35,20c29.75,8.58,57.18-4.16,68-10c-10.84,3.51-27.07,6.89-46,4
		c-5.24-0.8-15.08-2.38-26-8c-13.11-6.75-22.08-16.39-33-32c-12.06-17.25-23.58-34.44-34-63c-18.51-50.73-16.69-101.08-13.87-130.87
		c6.81-72.1,30.45-140.32,64.73-205.37c70.26-133.34,131.06-150.6,143.39-241.3c7.16-52.65-6.31-98.45-18.96-129.12
		c0.72,3.62,5.54,29.86-4.9,46.11c-7.32,11.39-17.36,15.53-27.01,18.61c-5.19,1.65-10.63,3.09-15.68,0.38
		c-6.06-3.25-10.61-11.92-14.52-20.66c-16.92-37.87-37.47-103.43-24.39-151.54c4.92-18.08,12.44-34.85,22.88-43.09
		c16.4-12.94,32.98,3.6,43.37,26.21c-6.48-22.57-13.1-35.92-12.91-62.65c0.19-26.77-0.8-64.29,8.69-87.1
		c8.32-20.01,19.86-37.37,28.28-58.38c62.66-156.31,199.51,3.02,207.77-243.29c4.61-137.39-87.75-196.53-90.76-344.26
		c-3.02-147.72,95.11-242.67,89.6-423.22c-2.48-80.99-14.73-133.84-27.51-167.52l-624.34,3.4
		C252.69,133.09,215.34,311.92,199.58,468.37z M69.51,537.14C52.06,591.19,29.96,642.26,23.1,712.91
		c38.73,95.58,82.93,158.8,123.67,200.14C74.34,758.81,60.9,638.07,69.51,537.14z M1.96,178.6c5.07,9.69,10.29,19.05,15.48,28.07
		c32.97,57.25,74.3,119.93,75.02,199.73c19.45-78.31,42.85-145.29,41.65-211.54c-1.39-76.53-10.13-142.51-19.45-192.18L1.16,3.3
		L1.96,178.6z"/>
	<g>
		<path class="st0" d="M548.37,1714.33c4.45-12.23,6.08-28.65,1.97-41.3c-3.09-9.51-9.07-15.58-15.25-17.02
			c-6.19-1.44-12.52,1.4-18.01,6.53c-13.29,12.42-30.44,58.28-16.11,82.25C515.58,1769.26,540.47,1736.05,548.37,1714.33z"/>
		<path class="st0" d="M193.49,800.75c-0.71-13.39,0.07-28.95,6.27-36.84c5.2-6.62,12.71-5.23,18.23,0.64
			c5.52,5.86,9.42,15.37,12.83,24.96c7.92,22.24,14.21,47.26,14.26,73.41c0.01,5.62-0.28,11.34-1.52,16.51
			c-6.13,25.56-28.37,21.74-36.85,2.61C198.33,863.15,194.69,823.32,193.49,800.75z"/>
		<path class="st0" d="M598.3,65.65c7.79-4.14,16.45,3.33,21.43,14.66c4.98,11.33,6.96,25.76,8.26,39.84
			c2.59,28.06,2.88,57.6-3.02,84.01c-0.57,2.54-1.23,5.14-2.44,6.86c-2.28,3.23-5.62,2.28-8.45,0.89
			c-19.4-9.55-34.13-34.09-31.8-70.88C583.74,117.7,582.14,74.23,598.3,65.65z"/>
		<path class="st0" d="M580.77,294.39c-3.36-21.94,1.02-54.1,14.92-45.37c5.63,3.53,7.48,15.68,8.15,26.06
			c0.73,11.38,0.57,24.71-4.52,31.86C589.59,320.6,583.18,310.13,580.77,294.39z"/>
		<path class="st0" d="M405.41,1628.5c-10.18-14.14-17.66-44.6-3.57-52.11c5.7-3.04,11.33,4.8,15.41,12.46
			c4.47,8.4,8.9,19.29,7.27,30.36C421.4,1640.38,412.71,1638.64,405.41,1628.5z"/>
		<path class="st0" d="M775.78,907.29c-4.78-15.92-4.6-42.1,6.99-39.59c4.69,1.02,7.33,9.83,8.87,17.65
			c1.69,8.57,2.9,18.91-0.31,25.99C785.19,924.85,779.21,918.71,775.78,907.29z"/>
		<path class="st0" d="M260.97,920.43c-3.36-21.94,1.02-54.1,14.92-45.37c5.63,3.53,7.48,15.68,8.15,26.06
			c0.73,11.38,0.57,24.71-4.52,31.86C269.78,946.65,263.38,936.17,260.97,920.43z"/>
		<path class="st0" d="M720.08,748.8c-0.39-4.5-0.58-9.33,0.59-13.38c1.94-6.7,6.92-8.86,11.19-7.97
			c7.77,1.62,14.54,10.78,19.04,22.01c6.35,15.85,21.32,76.24-1.33,69.85C732.92,814.61,722.22,773.56,720.08,748.8z"/>
	</g>
	<path class="st2" d="M861.05-1.37l74.51-0.41c13.22,111.84,15.9,302.28-99.13,389.83C836.43,388.05,929.1,183.61,861.05-1.37z"/>
</g>
</svg>
